<?xml version="1.0" standalone="no"?>
<!DOCTYPE svg PUBLIC "-//W3C//DTD SVG 20010904//EN"
 "http://www.w3.org/TR/2001/REC-SVG-20010904/DTD/svg10.dtd">
<svg version="1.0" xmlns="http://www.w3.org/2000/svg"
 width="558.000000pt" height="558.000000pt" viewBox="0 0 558.000000 558.000000"
 preserveAspectRatio="xMidYMid meet">
<metadata>
Created by potrace 1.14, written by Peter Selinger 2001-2017
</metadata>
<g transform="translate(0.000000,558.000000) scale(0.100000,-0.100000)"
fill="#000000" stroke="none">
<path d="M930 2790 l0 -2430 728 1 c727 1 833 5 998 39 28 6 64 13 80 16 37 6
162 40 239 65 115 37 201 73 340 144 529 267 948 727 1163 1275 50 127 105
316 125 430 31 173 41 280 41 455 0 212 -9 297 -50 502 -52 256 -132 464 -287
743 -29 52 -143 216 -204 293 -151 189 -444 443 -638 553 -301 169 -530 254
-840 310 -163 29 -264 32 -967 33 l-728 1 0 -2430z"/>
</g>
</svg>
