<?xml version="1.0" standalone="no"?>
<!DOCTYPE svg PUBLIC "-//W3C//DTD SVG 20010904//EN"
 "http://www.w3.org/TR/2001/REC-SVG-20010904/DTD/svg10.dtd">
<svg version="1.0" xmlns="http://www.w3.org/2000/svg"
 width="600.000000pt" height="600.000000pt" viewBox="0 0 600.000000 600.000000"
 preserveAspectRatio="xMidYMid meet">
<metadata>
Created by potrace 1.14, written by Peter Selinger 2001-2017
</metadata>
<g transform="translate(0.000000,600.000000) scale(0.100000,-0.100000)"
fill="#000000" stroke="none">
<path d="M2798 5995 c-1 -1 -41 -6 -87 -9 -47 -4 -87 -9 -90 -11 -3 -1 -37 -6
-76 -10 -38 -3 -72 -8 -75 -10 -4 -2 -22 -7 -41 -10 -19 -3 -54 -11 -79 -16
-25 -6 -52 -12 -60 -14 -138 -28 -383 -115 -555 -195 -105 -49 -305 -157 -315
-170 -3 -4 -12 -9 -20 -12 -8 -3 -67 -43 -130 -88 -337 -241 -619 -542 -830
-885 -25 -41 -31 -51 -95 -169 -65 -120 -136 -287 -186 -436 -54 -164 -76
-242 -99 -365 -6 -27 -12 -61 -15 -75 -3 -14 -7 -43 -10 -65 -3 -22 -8 -56
-10 -75 -16 -115 -20 -187 -19 -380 0 -290 16 -439 75 -690 27 -115 78 -287
98 -335 5 -11 24 -58 42 -105 18 -47 65 -148 104 -225 237 -467 577 -850 1015
-1142 413 -276 855 -433 1378 -490 139 -15 570 -8 672 12 13 2 46 7 73 10 28
3 53 8 56 9 3 2 28 7 55 10 27 4 52 9 56 11 4 2 17 6 31 9 301 62 685 223 961
402 260 169 526 407 703 629 22 28 43 52 46 55 3 3 37 50 76 105 122 174 231
366 302 535 18 41 36 84 41 95 25 53 108 316 125 391 32 148 45 219 51 269 3
33 8 62 9 65 25 42 25 727 1 769 -2 3 -7 30 -10 60 -13 112 -68 348 -106 453
-11 32 -20 63 -20 69 0 6 -6 25 -14 42 -7 18 -24 59 -36 92 -32 85 -150 327
-200 410 -171 286 -405 565 -630 755 -36 30 -67 57 -70 60 -40 40 -288 211
-390 269 -60 34 -267 137 -342 170 -199 88 -551 181 -778 206 -36 4 -74 9 -85
12 -23 5 -491 13 -497 8z"/>
</g>
</svg>
