<svg width="314" height="307" viewBox="0 0 314 307" fill="none" xmlns="http://www.w3.org/2000/svg">
<path d="M116.044 196.166V122.029L211.609 184.193V110.343" stroke="#FB5E14" stroke-width="15"/>
<path d="M88.0652 153.255C88.0652 172.073 70.8089 188.666 47.7826 188.666C24.7563 188.666 7.5 172.073 7.5 153.255C7.5 134.436 24.7563 117.843 47.7826 117.843C70.8089 117.843 88.0652 134.436 88.0652 153.255Z" stroke="#FB5E14" stroke-width="15"/>
<path d="M300.348 110.343H245.739V147.124H232.087V159.385H245.739V196.166H300.348V183.905H259.391V159.385H314V147.124H259.391V122.604H300.348V110.343Z" fill="#FB5E14"/>
<path d="M136.522 110.343L195.826 73.5621V147.124L136.522 110.343Z" fill="#222222"/>
<path d="M136.522 36.7812L195.826 7.43866e-05V73.5623L136.522 36.7812Z" fill="#222222"/>
<path d="M136.522 232.947L195.826 196.166V269.728L136.522 232.947Z" fill="#222222"/>
<path opacity="0.6" d="M195.826 73.5622L136.522 36.7811V110.343L195.826 73.5622Z" fill="#222222"/>
<path opacity="0.6" d="M195.826 196.166L136.522 159.385V232.947L195.826 196.166Z" fill="#222222"/>
<g opacity="0.8">
<path d="M22.9356 278.556H9.8841C9.01036 278.556 8.13662 278.229 7.26289 277.575L5.78845 276.447C5.02393 275.891 4.64167 275.237 4.64167 274.485V264.334C4.64167 263.353 5.07854 262.536 5.95228 261.882L7.26289 260.901C8.13662 260.247 9.01036 259.92 9.8841 259.92H24.41C25.2838 259.92 26.1575 260.247 27.0312 260.901L28.3418 261.882C29.2156 262.536 29.6525 263.353 29.6525 264.334V266.296H25.0653V265.364C25.0653 264.873 25.0289 264.563 24.9561 264.432C24.9197 264.268 24.7377 264.072 24.41 263.843C24.0824 263.615 23.8275 263.484 23.6455 263.451C23.4635 263.386 23.0448 263.353 22.3895 263.353H11.9046C11.2493 263.353 10.8307 263.386 10.6486 263.451C10.4666 263.484 10.2118 263.615 9.8841 263.843C9.55645 264.072 9.35622 264.268 9.28341 264.432C9.247 264.563 9.2288 264.873 9.2288 265.364V273.112C9.2288 273.603 9.247 273.93 9.28341 274.093C9.35622 274.224 9.55645 274.404 9.8841 274.633C10.2118 274.861 10.4666 275.009 10.6486 275.074C10.8307 275.107 11.2493 275.123 11.9046 275.123H24.9561C25.8298 275.123 26.7036 275.45 27.5773 276.104L28.8879 277.085C29.7617 277.739 30.1985 278.556 30.1985 279.537V289.835C30.1985 290.816 29.7617 291.634 28.8879 292.288L27.5773 293.268C26.7036 293.922 25.8298 294.249 24.9561 294.249H9.33802C8.46428 294.249 7.59054 293.922 6.7168 293.268L5.40619 292.288C4.53245 291.634 4.09558 290.816 4.09558 289.835V287.874H8.68271V288.806C8.68271 289.296 8.70091 289.623 8.73732 289.786C8.81013 289.917 9.01036 290.097 9.33802 290.326C9.66567 290.555 9.92051 290.702 10.1025 290.767C10.2846 290.8 10.7032 290.816 11.3585 290.816H22.9356C23.5909 290.816 24.0096 290.8 24.1916 290.767C24.3736 290.702 24.6285 290.555 24.9561 290.326C25.2838 290.097 25.4658 289.917 25.5022 289.786C25.575 289.623 25.6114 289.296 25.6114 288.806V280.567C25.6114 280.076 25.575 279.766 25.5022 279.635C25.4658 279.471 25.2838 279.275 24.9561 279.046C24.6285 278.817 24.3736 278.687 24.1916 278.654C24.0096 278.589 23.5909 278.556 22.9356 278.556Z" fill="#222222"/>
<path d="M45.8947 262.863V269.728H52.8846C53.3579 270.055 53.6309 270.317 53.7037 270.513C53.813 270.677 53.8676 271.134 53.8676 271.886V273.161H45.8947V288.806C45.8947 289.296 45.9129 289.623 45.9493 289.786C46.0221 289.917 46.2224 290.097 46.55 290.326C46.8777 290.555 47.1325 290.702 47.3145 290.767C47.4966 290.8 47.9152 290.816 48.5705 290.816H53.5399C54.0132 291.143 54.2862 291.405 54.359 291.601C54.4683 291.764 54.5229 292.222 54.5229 292.974V294.249H46.55C45.6763 294.249 44.8025 293.922 43.9288 293.268L42.6182 292.288C41.7444 291.634 41.3076 290.816 41.3076 289.835V273.161H38.6863C38.2131 272.834 37.9218 272.589 37.8126 272.426C37.7398 272.23 37.7034 271.755 37.7034 271.004V269.728H41.3076V262.863H45.8947Z" fill="#222222"/>
<path d="M67.5978 269.728H80.7039C81.5776 269.728 82.4514 270.055 83.3251 270.709L84.6357 271.69C85.5095 272.344 85.9463 273.161 85.9463 274.142V289.835C85.9463 290.816 85.5095 291.634 84.6357 292.288L83.3251 293.268C82.4514 293.922 81.5776 294.249 80.7039 294.249H67.5978C66.7241 294.249 65.8503 293.922 64.9766 293.268L63.666 292.288C62.7922 291.634 62.3554 290.816 62.3554 289.835V274.142C62.3554 273.161 62.7922 272.344 63.666 271.69L64.9766 270.709C65.8503 270.055 66.7241 269.728 67.5978 269.728ZM81.3592 288.806V275.172C81.3592 274.682 81.3228 274.371 81.25 274.24C81.2136 274.077 81.0316 273.881 80.7039 273.652C80.3762 273.423 80.1214 273.292 79.9394 273.259C79.7574 273.194 79.3387 273.161 78.6834 273.161H69.6183C68.963 273.161 68.5444 273.194 68.3623 273.259C68.1803 273.292 67.9255 273.423 67.5978 273.652C67.2702 273.881 67.0699 274.077 66.9971 274.24C66.9607 274.371 66.9425 274.682 66.9425 275.172V288.806C66.9425 289.296 66.9607 289.623 66.9971 289.786C67.0699 289.917 67.2702 290.097 67.5978 290.326C67.9255 290.555 68.1803 290.702 68.3623 290.767C68.5444 290.8 68.963 290.816 69.6183 290.816H78.6834C79.3387 290.816 79.7574 290.8 79.9394 290.767C80.1214 290.702 80.3762 290.555 80.7039 290.326C81.0316 290.097 81.2136 289.917 81.25 289.786C81.3228 289.623 81.3592 289.296 81.3592 288.806Z" fill="#222222"/>
<path d="M94.586 269.728H96.4973C97.1526 269.728 97.5895 269.777 97.8079 269.876C98.0628 269.941 98.4086 270.137 98.8455 270.464C99.428 270.889 99.7192 271.298 99.7192 271.69H99.9377C99.9377 271.298 100.338 270.889 101.139 270.464C101.794 270.104 102.231 269.892 102.45 269.827C102.705 269.761 103.16 269.728 103.815 269.728H114.245C115.119 269.728 115.993 270.055 116.866 270.709L118.177 271.69C119.051 272.344 119.488 273.161 119.488 274.142V289.835C119.488 290.816 119.051 291.634 118.177 292.288L116.866 293.268C115.993 293.922 115.119 294.249 114.245 294.249H104.634C103.687 294.249 102.814 293.922 102.013 293.268C101.139 292.484 100.702 291.993 100.702 291.797H100.484V307H95.8966V275.172C95.8966 274.682 95.8602 274.371 95.7874 274.24C95.751 274.077 95.569 273.881 95.2413 273.652C94.9137 273.423 94.7134 273.243 94.6406 273.112C94.6042 272.949 94.586 272.622 94.586 272.131V269.728ZM104.416 290.816H112.225C112.88 290.816 113.299 290.8 113.481 290.767C113.663 290.702 113.918 290.555 114.245 290.326C114.573 290.097 114.755 289.917 114.791 289.786C114.864 289.623 114.9 289.296 114.9 288.806V275.172C114.9 274.682 114.864 274.371 114.791 274.24C114.755 274.077 114.573 273.881 114.245 273.652C113.918 273.423 113.663 273.292 113.481 273.259C113.299 273.194 112.88 273.161 112.225 273.161H104.47C103.815 273.161 103.36 273.194 103.105 273.259C102.887 273.325 102.45 273.537 101.794 273.897C101.139 274.257 100.757 274.518 100.648 274.682C100.538 274.845 100.484 275.172 100.484 275.662V287.874C100.484 288.528 100.921 289.182 101.794 289.835C102.668 290.489 103.542 290.816 104.416 290.816Z" fill="#222222"/>
<path d="M228.441 276.104H223.854V275.172C223.854 274.682 223.818 274.371 223.745 274.24C223.709 274.077 223.527 273.881 223.199 273.652C222.871 273.423 222.616 273.292 222.434 273.259C222.252 273.194 221.834 273.161 221.178 273.161H213.861C213.205 273.161 212.787 273.194 212.605 273.259C212.423 273.292 212.168 273.423 211.84 273.652C211.513 273.881 211.312 274.077 211.24 274.24C211.203 274.371 211.185 274.682 211.185 275.172V288.806C211.185 289.296 211.203 289.623 211.24 289.786C211.312 289.917 211.513 290.097 211.84 290.326C212.168 290.555 212.423 290.702 212.605 290.767C212.787 290.8 213.205 290.816 213.861 290.816H221.178C221.834 290.816 222.252 290.8 222.434 290.767C222.616 290.702 222.871 290.555 223.199 290.326C223.527 290.097 223.709 289.917 223.745 289.786C223.818 289.623 223.854 289.296 223.854 288.806V287.874H228.441V289.835C228.441 290.816 228.004 291.634 227.131 292.288L225.82 293.268C224.946 293.922 224.073 294.249 223.199 294.249H211.84C210.967 294.249 210.093 293.922 209.219 293.268L207.908 292.288C207.035 291.634 206.598 290.816 206.598 289.835V274.142C206.598 273.161 207.035 272.344 207.908 271.69L209.219 270.709C210.093 270.055 210.967 269.728 211.84 269.728H223.199C224.073 269.728 224.946 270.055 225.82 270.709L227.131 271.69C228.004 272.344 228.441 273.161 228.441 274.142V276.104Z" fill="#222222"/>
<path d="M237.023 257.958H241.61V288.119C241.61 288.871 241.647 289.345 241.719 289.541C241.792 289.705 242.047 289.917 242.484 290.179C242.957 290.506 243.23 290.767 243.303 290.963C243.412 291.127 243.467 291.585 243.467 292.337V294.249H241.829C241.137 294.249 240.682 294.216 240.463 294.151C240.245 294.086 239.863 293.89 239.317 293.563L238.115 292.827C237.569 292.5 237.241 292.238 237.132 292.042C237.059 291.846 237.023 291.372 237.023 290.62V257.958Z" fill="#222222"/>
<path d="M266.159 294.249H257.586C256.712 294.249 255.838 293.922 254.964 293.268L253.654 292.288C252.78 291.634 252.343 290.816 252.343 289.835V269.728H256.93V288.806C256.93 289.296 256.949 289.623 256.985 289.786C257.058 289.917 257.258 290.097 257.586 290.326C257.913 290.555 258.168 290.702 258.35 290.767C258.532 290.8 258.951 290.816 259.606 290.816H265.504C266.159 290.816 266.596 290.784 266.815 290.718C267.069 290.653 267.524 290.44 268.18 290.081C268.835 289.721 269.217 289.459 269.327 289.296C269.436 289.133 269.49 288.806 269.49 288.315V269.728H274.078V288.806C274.078 289.296 274.096 289.623 274.132 289.786C274.205 289.917 274.405 290.097 274.733 290.326C275.06 290.555 275.243 290.751 275.279 290.914C275.352 291.045 275.388 291.356 275.388 291.846V294.249H273.477C272.822 294.249 272.366 294.216 272.112 294.151C271.893 294.053 271.566 293.84 271.129 293.514C270.546 293.089 270.255 292.68 270.255 292.288H270.037C270.037 292.68 269.636 293.089 268.835 293.514C268.18 293.873 267.725 294.086 267.47 294.151C267.251 294.216 266.815 294.249 266.159 294.249Z" fill="#222222"/>
<path d="M302.992 288.806V275.172C302.992 274.682 302.956 274.371 302.883 274.24C302.847 274.077 302.665 273.881 302.337 273.652C302.009 273.423 301.755 273.292 301.573 273.259C301.391 273.194 300.972 273.161 300.317 273.161H292.617C291.925 273.161 291.452 273.194 291.197 273.259C290.978 273.325 290.542 273.537 289.886 273.897C289.231 274.257 288.849 274.518 288.74 274.682C288.63 274.845 288.576 275.172 288.576 275.662V288.315C288.576 288.806 288.63 289.133 288.74 289.296C288.849 289.459 289.231 289.721 289.886 290.081C290.542 290.44 290.978 290.653 291.197 290.718C291.452 290.784 291.907 290.816 292.562 290.816H300.317C300.972 290.816 301.391 290.8 301.573 290.767C301.755 290.702 302.009 290.555 302.337 290.326C302.665 290.097 302.847 289.917 302.883 289.786C302.956 289.623 302.992 289.296 302.992 288.806ZM288.576 257.958V272.033H288.794C288.794 271.739 289.195 271.281 289.996 270.66C290.796 270.039 291.488 269.728 292.071 269.728H302.337C303.211 269.728 304.085 270.055 304.958 270.709L306.269 271.69C307.143 272.344 307.58 273.161 307.58 274.142V289.835C307.58 290.816 307.143 291.634 306.269 292.288L304.958 293.268C304.085 293.922 303.211 294.249 302.337 294.249H292.125C291.47 294.249 291.015 294.216 290.76 294.151C290.542 294.086 290.105 293.873 289.449 293.514C288.612 293.154 288.175 292.794 288.139 292.435H287.92V294.249H283.989V257.958H288.576Z" fill="#222222"/>
</g>
</svg>
