<svg width="307" height="314" viewBox="0 0 307 314" fill="none" xmlns="http://www.w3.org/2000/svg">
<path fill-rule="evenodd" clip-rule="evenodd" d="M133 24.0282C133 17.7771 127.307 13.0361 121.322 14.8425C74.7622 28.8961 41 73.0924 41 125.063C41 188.252 90.9091 239.947 153.048 239.947C215.187 239.947 265.096 188.252 265.096 125.063C265.096 69.1017 225.95 22.1546 173.831 12.1484C168.06 11.0403 163 15.6897 163 21.5665V21.7796C163 26.8751 166.85 31.0955 171.833 32.1624C213.503 41.0853 245.096 79.0966 245.096 125.063C245.096 177.726 203.628 219.947 153.048 219.947C102.468 219.947 61 177.726 61 125.063C61 82.4455 88.1576 46.6662 125.325 34.5677C129.757 33.1248 133 29.1381 133 24.4765V24.0282Z" fill="#805695"/>
<ellipse cx="122.653" cy="124.662" rx="9.95181" ry="64.3418" fill="#C081DF"/>
<ellipse cx="146.537" cy="124.662" rx="7.96145" ry="40.2136" fill="#C081DF"/>
<ellipse cx="167.436" cy="124.662" rx="6.96627" ry="32.1709" fill="#C081DF"/>
<ellipse cx="185.349" cy="124.662" rx="4.9759" ry="24.1282" fill="#C081DF"/>
<path d="M138.428 24.707C136.447 23.5486 136.447 20.6861 138.428 19.5278L167.302 2.64027C169.302 1.47058 171.817 2.91299 171.817 5.22988V39.0049C171.817 41.3218 169.302 42.7642 167.302 41.5945L138.428 24.707Z" fill="#805695"/>
<path d="M76.5215 275.715V281.979H92.3615V294.003H76.5215V301.203H94.5215V313.947H60.5375V262.971H94.5215V275.715H76.5215Z" fill="#222222" fill-opacity="0.8"/>
<path d="M173.985 262.971L162.321 313.947H142.449L136.545 285.003L130.641 313.947H110.769L99.1053 262.971H116.313L120.921 295.083L127.833 262.971H145.257L152.169 295.083L156.777 262.971H173.985Z" fill="#222222" fill-opacity="0.8"/>
<path d="M195.701 262.971V313.947H179.717V262.971H195.701Z" fill="#222222" fill-opacity="0.8"/>
<path d="M251.808 313.947H235.824L218.904 288.315V313.947H202.92V262.971H218.904L235.824 289.035V262.971H251.808V313.947Z" fill="#222222" fill-opacity="0.8"/>
<path d="M280.27 262.971C285.598 262.971 290.254 264.051 294.238 266.211C298.27 268.371 301.366 271.371 303.526 275.211C305.686 279.051 306.766 283.419 306.766 288.315C306.766 293.163 305.686 297.531 303.526 301.419C301.366 305.307 298.27 308.379 294.238 310.635C290.254 312.843 285.598 313.947 280.27 313.947H259.03V262.971H280.27ZM278.83 299.691C282.43 299.691 285.286 298.707 287.398 296.739C289.51 294.771 290.566 291.963 290.566 288.315C290.566 284.667 289.51 281.859 287.398 279.891C285.286 277.923 282.43 276.939 278.83 276.939H275.014V299.691H278.83Z" fill="#222222" fill-opacity="0.8"/>
<path d="M22.3667 313.947L34.5583 290.269H34.65V313.947H55V247.947H24.75C19.4944 247.947 15.0028 248.91 11.275 250.837C7.54722 252.701 4.76666 255.28 2.93333 258.574C1.03888 261.806 0.0916649 265.472 0.0916649 269.574C0.0916649 273.986 1.31389 277.902 3.75833 281.32C6.14166 284.738 9.59444 287.193 14.1167 288.684L0 313.947H22.3667ZM34.65 276.472H26.5833C24.6278 276.472 23.1611 276.037 22.1833 275.167C21.2056 274.235 20.7167 272.806 20.7167 270.879C20.7167 269.139 21.2361 267.772 22.275 266.777C23.2528 265.783 24.6889 265.286 26.5833 265.286H34.65V276.472Z" fill="#222222" fill-opacity="0.8"/>
</svg>
