<svg width="1080" height="690" viewBox="0 0 1080 690" fill="none" xmlns="http://www.w3.org/2000/svg">
<path d="M115.051 689.96L0 407.011H78.4437L133.79 566.17C135.243 570.001 136.55 573.98 137.712 578.107C138.874 582.233 140.037 586.507 141.199 590.928C141.489 592.991 141.925 595.054 142.506 597.117C143.087 599.181 143.523 601.244 143.814 603.307C144.395 601.244 144.83 599.181 145.121 597.117C145.702 595.054 146.138 592.991 146.428 590.928C147.3 586.507 148.172 582.233 149.043 578.107C150.205 573.98 151.513 570.001 152.965 566.17L209.183 407.011H287.627L172.14 689.96H115.051Z" fill="#60B49F"/>
<path d="M0 407.011H285.448L207.004 603.749H80.6227L0 407.011Z" fill="#60B49F"/>
<path d="M117.666 601.538V407.011H169.229V558.141H225.943L208.23 601.538H117.666Z" fill="white"/>
<path d="M284.389 560.423V660.367H320.362L309.501 688.583H252.763V560.423H284.389Z" fill="white"/>
<path d="M370.267 560.423V688.583H338.641V560.423H370.267Z" fill="white"/>
<path d="M465.39 588.638H427.31V610.055H462.002V638.271H427.31V688.583H395.684V560.423H465.39V588.638Z" fill="white"/>
<path d="M553.464 588.638H515.867V610.055H551.366V638.271H515.867V660.367H553.464V688.583H484.241V560.423H553.464V588.638Z" fill="white"/>
<path d="M284.389 560.423V660.367H320.362L309.501 688.583H252.763V560.423H284.389Z" stroke="black"/>
<path d="M370.267 560.423V688.583H338.641V560.423H370.267Z" stroke="black"/>
<path d="M465.39 588.638H427.31V610.055H462.002V638.271H427.31V688.583H395.684V560.423H465.39V588.638Z" stroke="black"/>
<path d="M553.464 588.638H515.867V610.055H551.366V638.271H515.867V660.367H553.464V688.583H484.241V560.423H553.464V588.638Z" stroke="black"/>
<path d="M353.591 529.484L302.585 406.888H337.675L361.836 475.596C362.475 477.264 363.05 478.996 363.562 480.792C364.073 482.589 364.584 484.449 365.096 486.374C365.224 487.272 365.415 488.17 365.671 489.068C365.927 489.966 366.119 490.864 366.246 491.762C366.502 490.864 366.694 489.966 366.822 489.068C367.077 488.17 367.269 487.272 367.397 486.374C367.78 484.449 368.164 482.589 368.547 480.792C369.059 478.996 369.634 477.264 370.273 475.596L394.626 406.888H429.908L378.71 529.484H353.591Z" fill="#242423"/>
<path d="M434.4 529.484V406.888H467.957V529.484H434.4Z" fill="#242423"/>
<path d="M493.761 529.484V406.888H525.975L571.996 469.822C573.146 471.618 574.233 473.543 575.255 475.596C576.406 477.521 577.492 479.509 578.515 481.562C579.282 483.23 580.049 484.898 580.816 486.566C581.583 488.234 582.35 489.838 583.117 491.378C582.989 489.966 582.798 488.619 582.542 487.336C582.414 486.053 582.286 484.706 582.158 483.294C581.903 480.728 581.711 478.098 581.583 475.403C581.455 472.709 581.391 469.95 581.391 467.128V406.888H613.414V529.484H581.391L534.988 466.165C533.709 464.626 532.495 462.83 531.344 460.777C530.194 458.595 529.107 456.35 528.085 454.041C527.318 452.373 526.551 450.769 525.784 449.229C525.144 447.561 524.505 446.022 523.866 444.61C524.505 448.588 525.017 452.629 525.4 456.735C525.784 460.841 525.975 464.947 525.975 469.052V529.484H493.761Z" fill="#242423"/>
<path d="M664.803 529.484V435.95H637.575V406.888H725.397V435.95H698.168V529.484H664.803Z" fill="#242423"/>
<path d="M723.52 529.484L765.513 406.888H807.123L849.5 529.484H816.136L810 507.352H762.829L756.501 529.484H723.52ZM782.387 443.07L769.923 483.679H803.096L790.633 443.07C789.993 441.146 789.354 439.157 788.715 437.104C788.204 434.923 787.756 432.806 787.373 430.753C787.117 429.983 786.925 429.278 786.798 428.636C786.67 427.866 786.542 427.161 786.414 426.519C786.286 427.161 786.095 427.866 785.839 428.636C785.711 429.278 785.583 429.983 785.455 430.753C785.328 431.01 785.264 431.266 785.264 431.523C785.264 431.651 785.2 431.844 785.072 432.1C784.688 434.025 784.241 435.885 783.73 437.682C783.346 439.478 782.899 441.274 782.387 443.07Z" fill="#242423"/>
<path d="M914.8 484.257V458.66H979.996C979.996 460.199 979.996 461.803 979.996 463.471C979.996 465.011 979.996 466.55 979.996 468.09C979.868 473.607 979.42 479.06 978.653 484.449C977.886 489.838 976.352 495.098 974.051 500.231C968.682 510.752 960.948 518.707 950.85 524.095C940.751 529.356 930.204 532.05 919.21 532.179C918.955 532.179 918.699 532.179 918.444 532.179C918.316 532.179 918.188 532.179 918.06 532.179C917.804 532.179 917.485 532.179 917.101 532.179C916.846 532.179 916.59 532.179 916.334 532.179C903.679 531.794 891.726 528.265 880.477 521.593C869.227 514.922 861.174 505.363 856.316 492.917C855.549 490.864 854.846 488.811 854.207 486.759C853.568 484.706 853.056 482.589 852.673 480.407C852.289 478.355 851.97 476.302 851.714 474.249C851.458 472.196 851.33 470.143 851.33 468.09C851.33 453.207 855.996 439.67 865.328 427.481C874.788 415.292 887.508 407.915 903.487 405.349C903.998 405.349 904.446 405.349 904.829 405.349C905.34 405.22 905.852 405.092 906.363 404.964C906.747 404.964 907.066 404.964 907.322 404.964C907.705 404.835 908.025 404.771 908.281 404.771C909.943 404.515 911.54 404.322 913.074 404.194C914.736 404.066 916.334 404.001 917.868 404.001C928.606 404.001 938.641 406.439 947.973 411.315C957.433 416.062 965.423 423.119 971.942 432.485L942.988 446.15C940.048 442.429 936.788 439.478 933.208 437.297C929.629 435.116 925.986 433.576 922.279 432.678C921.256 432.549 920.169 432.421 919.019 432.293C917.996 432.165 916.973 432.1 915.951 432.1C907.769 432.1 900.419 435.372 893.899 441.916C887.508 448.331 884.312 457.056 884.312 468.09C884.312 468.09 884.312 468.154 884.312 468.283C884.312 468.411 884.376 468.603 884.504 468.86C884.504 468.988 884.504 469.117 884.504 469.245C884.504 469.373 884.504 469.501 884.504 469.63C884.504 479.766 887.124 488.555 892.365 495.997C897.606 503.31 905.66 506.967 916.526 506.967L917.293 507.352C924.452 507.352 931.035 505.363 937.043 501.385C943.052 497.408 946.695 491.698 947.973 484.257H914.8Z" fill="#242423"/>
<path d="M1005.03 529.484V406.888H1080V433.64H1037.81V455.003H1077.51V481.177H1037.81V501.963H1080V529.484H1005.03Z" fill="#242423"/>
<path d="M507.834 340.001L380 0H467.16L528.656 191.251C530.27 195.855 531.722 200.636 533.014 205.595C534.305 210.553 535.596 215.688 536.887 221.001C537.21 223.48 537.694 225.959 538.34 228.438C538.986 230.918 539.47 233.397 539.793 235.876C540.438 233.397 540.923 230.918 541.245 228.438C541.891 225.959 542.375 223.48 542.698 221.001C543.667 215.688 544.635 210.553 545.603 205.595C546.895 200.636 548.347 195.855 549.961 191.251L612.426 0H699.586L571.267 340.001H507.834Z" fill="#60B49F"/>
<path d="M380 0H697.164L610.005 236.407H469.581L380 0Z" fill="#60B49F"/>
<path d="M510.739 233.751V0H568.032V181.603H631.047L611.367 233.751H510.739Z" fill="white"/>
</svg>
