<svg width="550" height="145" viewBox="0 0 550 145" fill="none" xmlns="http://www.w3.org/2000/svg">
<path d="M58.5907 144L0 1.53174H39.9482L68.1338 81.6702C68.8736 83.5995 69.5394 85.6029 70.1313 87.6806C70.7231 89.7582 71.3149 91.9101 71.9067 94.1362C72.0547 95.175 72.2766 96.2139 72.5725 97.2527C72.8684 98.2915 73.0904 99.3303 73.2383 100.369C73.5343 99.3303 73.7562 98.2915 73.9041 97.2527C74.2001 96.2139 74.422 95.175 74.5699 94.1362C75.0138 91.9101 75.4577 89.7582 75.9016 87.6806C76.4934 85.6029 77.1592 83.5995 77.899 81.6702L106.528 1.53174H146.477L87.6641 144H58.5907Z" fill="#60B49F"/>
<path d="M0 1.53174H145.367L105.419 100.592H41.0578L0 1.53174Z" fill="#60B49F"/>
<path d="M59.9223 99.4788V1.53174H86.1815V77.6277H115.063L106.043 99.4788H59.9223Z" fill="white"/>
<path d="M144.829 77.9121V128.776H163.148L157.617 143.136H128.723V77.9121H144.829Z" fill="white"/>
<path d="M188.563 77.9121V143.136H172.457V77.9121H188.563Z" fill="white"/>
<path d="M237.005 92.2717H217.612V103.171H235.28V117.531H217.612V143.136H201.507V77.9121H237.005V92.2717Z" fill="white"/>
<path d="M281.857 92.2717H262.711V103.171H280.789V117.531H262.711V128.776H281.857V143.136H246.605V77.9121H281.857V92.2717Z" fill="white"/>
<path d="M144.829 77.9121V128.776H163.148L157.617 143.136H128.723V77.9121H144.829Z" stroke="black" stroke-width="2"/>
<path d="M188.563 77.9121V143.136H172.457V77.9121H188.563Z" stroke="black" stroke-width="2"/>
<path d="M237.005 92.2717H217.612V103.171H235.28V117.531H217.612V143.136H201.507V77.9121H237.005V92.2717Z" stroke="black" stroke-width="2"/>
<path d="M281.857 92.2717H262.711V103.171H280.789V117.531H262.711V128.776H281.857V143.136H246.605V77.9121H281.857V92.2717Z" stroke="black" stroke-width="2"/>
<path d="M180.07 63.8615L154.094 1.46921H171.965L184.269 36.4363C184.594 37.2852 184.887 38.1667 185.148 39.0809C185.408 39.995 185.668 40.9419 185.929 41.9213C185.994 42.3784 186.092 42.8355 186.222 43.2926C186.352 43.7497 186.45 44.2068 186.515 44.6638C186.645 44.2068 186.743 43.7497 186.808 43.2926C186.938 42.8355 187.035 42.3784 187.101 41.9213C187.296 40.9419 187.491 39.995 187.686 39.0809C187.947 38.1667 188.24 37.2852 188.565 36.4363L200.967 1.46921H218.935L192.862 63.8615H180.07Z" fill="#242423"/>
<path d="M221.223 63.8615V1.46921H238.312V63.8615H221.223Z" fill="#242423"/>
<path d="M251.453 63.8615V1.46921H267.858L291.294 33.4979C291.88 34.4121 292.434 35.3915 292.954 36.4363C293.54 37.4158 294.094 38.4279 294.614 39.4726C295.005 40.3215 295.396 41.1704 295.786 42.0193C296.177 42.8681 296.567 43.6844 296.958 44.468C296.893 43.7497 296.795 43.064 296.665 42.4111C296.6 41.7581 296.535 41.0724 296.47 40.3542C296.34 39.0482 296.242 37.7096 296.177 36.3383C296.112 34.9671 296.079 33.5632 296.079 32.1266V1.46921H312.387V63.8615H296.079L272.448 31.6369C271.797 30.8533 271.178 29.9391 270.592 28.8944C270.006 27.7843 269.453 26.6416 268.932 25.4662C268.542 24.6173 268.151 23.8011 267.76 23.0175C267.435 22.1687 267.109 21.3851 266.784 20.6668C267.109 22.6911 267.37 24.7479 267.565 26.8375C267.76 28.927 267.858 31.0166 267.858 33.1061V63.8615H251.453Z" fill="#242423"/>
<path d="M338.557 63.8615V16.2592H324.691V1.46921H369.415V16.2592H355.549V63.8615H338.557Z" fill="#242423"/>
<path d="M368.459 63.8615L389.845 1.46921H411.035L432.616 63.8615H415.625L412.5 52.5976H388.478L385.255 63.8615H368.459ZM398.438 19.8832L392.091 40.5501H408.985L402.637 19.8832C402.312 18.9038 401.986 17.8917 401.661 16.8469C401.4 15.7368 401.172 14.6594 400.977 13.6146C400.847 13.2228 400.749 12.8637 400.684 12.5372C400.619 12.1454 400.554 11.7863 400.489 11.4598C400.424 11.7863 400.326 12.1454 400.196 12.5372C400.131 12.8637 400.066 13.2228 400.001 13.6146C399.936 13.7452 399.903 13.8758 399.903 14.0064C399.903 14.0717 399.87 14.1697 399.805 14.3003C399.61 15.2797 399.382 16.2266 399.122 17.1407C398.926 18.0549 398.699 18.9691 398.438 19.8832Z" fill="#242423"/>
<path d="M465.871 40.8439V27.817H499.072C499.072 28.6005 499.072 29.4168 499.072 30.2656C499.072 31.0492 499.072 31.8328 499.072 32.6164C499.007 35.4242 498.779 38.1993 498.388 40.9419C497.998 43.6844 497.217 46.3616 496.045 48.9735C493.311 54.3279 489.372 58.3764 484.229 61.1189C479.086 63.7962 473.715 65.1674 468.117 65.2327C467.986 65.2327 467.856 65.2327 467.726 65.2327C467.661 65.2327 467.596 65.2327 467.531 65.2327C467.401 65.2327 467.238 65.2327 467.042 65.2327C466.912 65.2327 466.782 65.2327 466.652 65.2327C460.207 65.0368 454.12 63.2411 448.391 59.8456C442.662 56.4501 438.561 51.5854 436.087 45.2515C435.696 44.2068 435.338 43.162 435.013 42.1172C434.687 41.0724 434.427 39.995 434.232 38.885C434.036 37.8402 433.874 36.7954 433.743 35.7507C433.613 34.7059 433.548 33.6611 433.548 32.6164C433.548 25.0418 435.924 18.1528 440.677 11.9495C445.494 5.74623 451.972 1.99159 460.109 0.685626C460.37 0.685626 460.597 0.685626 460.793 0.685626C461.053 0.620329 461.314 0.555033 461.574 0.489736C461.769 0.489736 461.932 0.489736 462.062 0.489736C462.258 0.424439 462.42 0.391789 462.551 0.391789C463.397 0.261191 464.211 0.163243 464.992 0.0979463C465.838 0.0326491 466.652 0 467.433 0C472.902 0 478.012 1.24066 482.764 3.72199C487.582 6.13801 491.651 9.7294 494.971 14.4962L480.225 21.4504C478.728 19.5568 477.068 18.0549 475.245 16.9448C473.422 15.8348 471.567 15.0512 469.679 14.5941C469.158 14.5288 468.605 14.4635 468.019 14.3982C467.498 14.3329 466.977 14.3003 466.457 14.3003C462.29 14.3003 458.547 15.9654 455.227 19.2956C451.972 22.5605 450.344 27.0007 450.344 32.6164C450.344 32.6164 450.344 32.649 450.344 32.7143C450.344 32.7796 450.377 32.8776 450.442 33.0081C450.442 33.0734 450.442 33.1387 450.442 33.204C450.442 33.2693 450.442 33.3346 450.442 33.3999C450.442 38.5585 451.776 43.0314 454.445 46.8187C457.115 50.5407 461.216 52.4017 466.75 52.4017L467.14 52.5976C470.786 52.5976 474.138 51.5854 477.198 49.5612C480.258 47.537 482.113 44.6312 482.764 40.8439H465.871Z" fill="#242423"/>
<path d="M511.819 63.8615V1.46921H550V15.0838H528.517V25.956H548.731V39.2768H528.517V49.855H550V63.8615H511.819Z" fill="#242423"/>
</svg>
