<svg width="135" height="35" viewBox="0 0 135 35" fill="none" xmlns="http://www.w3.org/2000/svg">
<path d="M43.584 16.056C43.38 16.056 43.134 16.044 42.846 16.02C42.57 15.996 42.288 15.954 42 15.894V14.058C42.228 14.106 42.444 14.142 42.648 14.166C42.864 14.19 43.044 14.202 43.188 14.202C43.74 14.202 44.136 14.04 44.376 13.716C44.628 13.392 44.754 12.876 44.754 12.168V0H47.076V12.168C47.076 13.032 46.956 13.752 46.716 14.328C46.476 14.904 46.098 15.336 45.582 15.624C45.078 15.912 44.412 16.056 43.584 16.056Z" fill="#E7CAFD"/>
<path d="M53.2195 12.87C52.4275 12.87 51.7315 12.684 51.1315 12.312C50.5315 11.928 50.0635 11.382 49.7275 10.674C49.3915 9.966 49.2235 9.12 49.2235 8.136C49.2235 7.152 49.3915 6.312 49.7275 5.616C50.0635 4.908 50.5315 4.368 51.1315 3.996C51.7315 3.612 52.4275 3.42 53.2195 3.42C53.9875 3.42 54.6595 3.612 55.2355 3.996C55.8235 4.368 56.2135 4.872 56.4055 5.508H56.2075L56.4055 3.6H58.5655C58.5295 3.972 58.4935 4.35 58.4575 4.734C58.4335 5.118 58.4215 5.496 58.4215 5.868V12.69H56.1895L56.1715 10.818H56.3875C56.1955 11.442 55.8055 11.94 55.2175 12.312C54.6295 12.684 53.9635 12.87 53.2195 12.87ZM53.8495 11.142C54.5575 11.142 55.1275 10.896 55.5595 10.404C55.9915 9.9 56.2075 9.144 56.2075 8.136C56.2075 7.128 55.9915 6.378 55.5595 5.886C55.1275 5.394 54.5575 5.148 53.8495 5.148C53.1415 5.148 52.5715 5.394 52.1395 5.886C51.7075 6.378 51.4915 7.128 51.4915 8.136C51.4915 9.144 51.7015 9.9 52.1215 10.404C52.5535 10.896 53.1295 11.142 53.8495 11.142Z" fill="#E7CAFD"/>
<path d="M60.8716 12.69V5.868C60.8716 5.496 60.8596 5.118 60.8356 4.734C60.8116 4.35 60.7756 3.972 60.7276 3.6H62.9056L63.0856 5.4H62.8696C63.1216 4.776 63.5056 4.29 64.0216 3.942C64.5496 3.594 65.1736 3.42 65.8936 3.42C66.6136 3.42 67.2076 3.594 67.6756 3.942C68.1556 4.278 68.4916 4.806 68.6836 5.526H68.3956C68.6476 4.878 69.0616 4.368 69.6376 3.996C70.2136 3.612 70.8736 3.42 71.6176 3.42C72.6376 3.42 73.3996 3.72 73.9036 4.32C74.4076 4.92 74.6596 5.856 74.6596 7.128V12.69H72.4096V7.218C72.4096 6.498 72.2896 5.982 72.0496 5.67C71.8096 5.346 71.4256 5.184 70.8976 5.184C70.2736 5.184 69.7816 5.406 69.4216 5.85C69.0616 6.282 68.8816 6.87 68.8816 7.614V12.69H66.6316V7.218C66.6316 6.498 66.5116 5.982 66.2716 5.67C66.0316 5.346 65.6476 5.184 65.1196 5.184C64.4956 5.184 64.0036 5.406 63.6436 5.85C63.2956 6.282 63.1216 6.87 63.1216 7.614V12.69H60.8716Z" fill="#E7CAFD"/>
<path d="M81.453 12.87C79.929 12.87 78.735 12.45 77.871 11.61C77.007 10.77 76.575 9.618 76.575 8.154C76.575 7.206 76.761 6.378 77.133 5.67C77.505 4.962 78.021 4.41 78.681 4.014C79.353 3.618 80.133 3.42 81.021 3.42C81.897 3.42 82.629 3.606 83.217 3.978C83.805 4.35 84.249 4.872 84.549 5.544C84.861 6.216 85.017 7.002 85.017 7.902V8.496H78.393V7.308H83.415L83.109 7.56C83.109 6.72 82.929 6.078 82.569 5.634C82.221 5.19 81.711 4.968 81.039 4.968C80.295 4.968 79.719 5.232 79.311 5.76C78.915 6.288 78.717 7.026 78.717 7.974V8.208C78.717 9.192 78.957 9.93 79.437 10.422C79.929 10.902 80.619 11.142 81.507 11.142C82.023 11.142 82.503 11.076 82.947 10.944C83.403 10.8 83.835 10.572 84.243 10.26L84.909 11.772C84.477 12.12 83.961 12.39 83.361 12.582C82.761 12.774 82.125 12.87 81.453 12.87Z" fill="#E7CAFD"/>
<path d="M90.1624 12.87C89.3824 12.87 88.6624 12.78 88.0024 12.6C87.3544 12.408 86.8084 12.144 86.3644 11.808L86.9944 10.296C87.4504 10.608 87.9544 10.848 88.5064 11.016C89.0584 11.184 89.6164 11.268 90.1804 11.268C90.7804 11.268 91.2244 11.166 91.5124 10.962C91.8124 10.758 91.9624 10.482 91.9624 10.134C91.9624 9.858 91.8664 9.642 91.6744 9.486C91.4944 9.318 91.2004 9.192 90.7924 9.108L88.9924 8.766C88.2244 8.598 87.6364 8.31 87.2284 7.902C86.8324 7.494 86.6344 6.96 86.6344 6.3C86.6344 5.736 86.7844 5.238 87.0844 4.806C87.3964 4.374 87.8344 4.038 88.3984 3.798C88.9744 3.546 89.6464 3.42 90.4144 3.42C91.0864 3.42 91.7164 3.51 92.3044 3.69C92.9044 3.87 93.4084 4.14 93.8164 4.5L93.1684 5.958C92.7964 5.658 92.3704 5.424 91.8904 5.256C91.4104 5.088 90.9424 5.004 90.4864 5.004C89.8624 5.004 89.4064 5.118 89.1184 5.346C88.8304 5.562 88.6864 5.844 88.6864 6.192C88.6864 6.456 88.7704 6.678 88.9384 6.858C89.1184 7.026 89.3944 7.152 89.7664 7.236L91.5664 7.578C92.3704 7.734 92.9764 8.01 93.3844 8.406C93.8044 8.79 94.0144 9.318 94.0144 9.99C94.0144 10.59 93.8524 11.106 93.5284 11.538C93.2044 11.97 92.7544 12.3 92.1784 12.528C91.6024 12.756 90.9304 12.87 90.1624 12.87Z" fill="#E7CAFD"/>
<path d="M44 34V21.31H48.608C50.06 21.31 51.284 21.562 52.28 22.066C53.288 22.558 54.05 23.278 54.566 24.226C55.082 25.162 55.34 26.302 55.34 27.646C55.34 28.978 55.082 30.118 54.566 31.066C54.05 32.014 53.288 32.74 52.28 33.244C51.284 33.748 50.06 34 48.608 34H44ZM46.322 32.074H48.464C50 32.074 51.14 31.708 51.884 30.976C52.628 30.244 53 29.134 53 27.646C53 26.146 52.628 25.036 51.884 24.316C51.14 23.584 50 23.218 48.464 23.218H46.322V32.074Z" fill="#A245E5"/>
<path d="M61.0409 34.18C60.2489 34.18 59.5529 33.994 58.9529 33.622C58.3529 33.238 57.8849 32.692 57.5489 31.984C57.2129 31.276 57.0449 30.43 57.0449 29.446C57.0449 28.462 57.2129 27.622 57.5489 26.926C57.8849 26.218 58.3529 25.678 58.9529 25.306C59.5529 24.922 60.2489 24.73 61.0409 24.73C61.8089 24.73 62.4809 24.922 63.0569 25.306C63.6449 25.678 64.0349 26.182 64.2269 26.818H64.0289L64.2269 24.91H66.3869C66.3509 25.282 66.3149 25.66 66.2789 26.044C66.2549 26.428 66.2429 26.806 66.2429 27.178V34H64.0109L63.9929 32.128H64.2089C64.0169 32.752 63.6269 33.25 63.0389 33.622C62.4509 33.994 61.7849 34.18 61.0409 34.18ZM61.6709 32.452C62.3789 32.452 62.9489 32.206 63.3809 31.714C63.8129 31.21 64.0289 30.454 64.0289 29.446C64.0289 28.438 63.8129 27.688 63.3809 27.196C62.9489 26.704 62.3789 26.458 61.6709 26.458C60.9629 26.458 60.3929 26.704 59.9609 27.196C59.5289 27.688 59.3129 28.438 59.3129 29.446C59.3129 30.454 59.5229 31.21 59.9429 31.714C60.3749 32.206 60.9509 32.452 61.6709 32.452Z" fill="#A245E5"/>
<path d="M71.2692 34L67.3452 24.91H69.7392L72.5832 32.02H72.0252L74.9412 24.91H77.1912L73.2492 34H71.2692Z" fill="#A245E5"/>
<path d="M78.3962 34V24.91H80.6462V34H78.3962ZM78.2702 23.2V21.004H80.7722V23.2H78.2702Z" fill="#A245E5"/>
<path d="M86.6175 34.18C85.8255 34.18 85.1235 33.994 84.5115 33.622C83.9115 33.238 83.4435 32.692 83.1075 31.984C82.7715 31.276 82.6035 30.43 82.6035 29.446C82.6035 28.462 82.7715 27.622 83.1075 26.926C83.4435 26.218 83.9115 25.678 84.5115 25.306C85.1235 24.922 85.8255 24.73 86.6175 24.73C87.3735 24.73 88.0395 24.916 88.6155 25.288C89.2035 25.648 89.5935 26.14 89.7855 26.764H89.5515V20.752H91.8015V34H89.5875V32.074H89.8035C89.6115 32.722 89.2215 33.238 88.6335 33.622C88.0575 33.994 87.3855 34.18 86.6175 34.18ZM87.2475 32.452C87.9555 32.452 88.5255 32.206 88.9575 31.714C89.3895 31.21 89.6055 30.454 89.6055 29.446C89.6055 28.438 89.3895 27.688 88.9575 27.196C88.5255 26.704 87.9555 26.458 87.2475 26.458C86.5395 26.458 85.9635 26.704 85.5195 27.196C85.0875 27.688 84.8715 28.438 84.8715 29.446C84.8715 30.454 85.0875 31.21 85.5195 31.714C85.9635 32.206 86.5395 32.452 87.2475 32.452Z" fill="#A245E5"/>
<path fill-rule="evenodd" clip-rule="evenodd" d="M111 0H102V34H111H112V33.9711C120.923 33.4535 128 26.0531 128 17C128 7.94685 120.923 0.546541 112 0.0289236V0H111Z" fill="#A245E5"/>
<path fill-rule="evenodd" clip-rule="evenodd" d="M16.9837 34C26.3815 34 34 26.3888 34 17C34 7.61116 26.3815 0 16.9837 0V18.0625H0C0.548986 26.9564 7.94297 34 16.9837 34Z" fill="#E7CAFD"/>
</svg>
