<svg width="81" height="47" viewBox="0 0 81 47" fill="none" xmlns="http://www.w3.org/2000/svg">
<path fill-rule="evenodd" clip-rule="evenodd" d="M0.0273438 6.95673L40.025 46.9087L41.1362 45.7988L41.1279 45.7905L80.0271 6.95223L78.9162 5.84209L40.0168 44.6805L40.5585 45.2218L1.13852 5.84682L0.0273438 6.95673Z" fill="white"/>
<path d="M17.8063 22.4954L40.0298 0.297255L62.2533 22.4954L40.0298 44.6936L17.8063 22.4954Z" fill="#A6A5C4"/>
<path d="M10.028 14.7261L17.8062 6.95672L25.5844 14.7261L17.8062 22.4954L10.028 14.7261Z" fill="#AFB4DB"/>
<path d="M54.475 14.7261L62.2532 6.95672L70.0314 14.7261L62.2532 22.4954L54.475 14.7261Z" fill="#AFB4DB"/>
<path fill-rule="evenodd" clip-rule="evenodd" d="M32.0667 24.5161C32.0667 24.1958 32.0506 23.9857 32.0273 23.7448H35.1204C35.138 23.9913 35.1504 24.2483 35.1504 24.5161C35.1504 26.9618 36.776 29.0276 39.0051 29.6914V16.0321H40.3954C40.8873 15.9885 41.3626 15.9901 41.8201 16.0321H42.0889V16.0617C46.373 16.612 49.0273 20.7452 49.0273 24.5161C49.0273 29.2016 45.2306 33 40.547 33C35.8635 33 32.0667 29.2016 32.0667 24.5161ZM42.0889 19.2097V29.6914C44.3181 29.0276 45.9436 26.9618 45.9436 24.5161C45.9436 22.0593 44.3607 19.7545 42.0889 19.2097Z" fill="white"/>
</svg>
