<svg width="316" height="47" viewBox="0 0 316 47" fill="none" xmlns="http://www.w3.org/2000/svg">
<path fill-rule="evenodd" clip-rule="evenodd" d="M0.0273438 6.95673L40.025 46.9087L41.1362 45.7988L41.1279 45.7905L80.0271 6.95223L78.9162 5.84209L40.0168 44.6805L40.5585 45.2218L1.13852 5.84682L0.0273438 6.95673Z" fill="white"/>
<path d="M17.8063 22.4954L40.0298 0.297255L62.2533 22.4954L40.0298 44.6936L17.8063 22.4954Z" fill="#A6A5C4"/>
<path d="M10.028 14.7261L17.8062 6.95672L25.5844 14.7261L17.8062 22.4954L10.028 14.7261Z" fill="#AFB4DB"/>
<path d="M54.475 14.7261L62.2532 6.95672L70.0314 14.7261L62.2532 22.4954L54.475 14.7261Z" fill="#AFB4DB"/>
<path fill-rule="evenodd" clip-rule="evenodd" d="M32.0667 24.5161C32.0667 24.1958 32.0506 23.9857 32.0273 23.7448H35.1204C35.138 23.9913 35.1504 24.2483 35.1504 24.5161C35.1504 26.9618 36.776 29.0276 39.0051 29.6914V16.0321H40.3954C40.8873 15.9885 41.3626 15.9901 41.8201 16.0321H42.0889V16.0617C46.373 16.612 49.0273 20.7452 49.0273 24.5161C49.0273 29.2016 45.2306 33 40.547 33C35.8635 33 32.0667 29.2016 32.0667 24.5161ZM42.0889 19.2097V29.6914C44.3181 29.0276 45.9436 26.9618 45.9436 24.5161C45.9436 22.0593 44.3607 19.7545 42.0889 19.2097Z" fill="white"/>
<path d="M118.975 36.802C117.247 36.802 115.765 36.322 114.529 35.362C113.293 34.402 112.459 33.118 112.027 31.51L114.673 30.88C114.889 31.828 115.387 32.632 116.167 33.292C116.959 33.94 117.889 34.264 118.957 34.264C119.629 34.264 120.307 34.102 120.991 33.778C121.687 33.454 122.233 32.92 122.629 32.176C122.893 31.66 123.043 31.102 123.079 30.502C123.127 29.89 123.151 29.158 123.151 28.306V10.36H125.815V28.306C125.815 29.026 125.809 29.68 125.797 30.268C125.785 30.844 125.719 31.402 125.599 31.942C125.491 32.47 125.281 33.004 124.969 33.544C124.345 34.636 123.505 35.452 122.449 35.992C121.405 36.532 120.247 36.802 118.975 36.802Z" fill="#AFB4DB"/>
<path d="M136.809 36.82C135.345 36.82 134.115 36.556 133.119 36.028C132.135 35.5 131.397 34.798 130.905 33.922C130.413 33.046 130.167 32.092 130.167 31.06C130.167 30.004 130.377 29.104 130.797 28.36C131.229 27.604 131.811 26.986 132.543 26.506C133.287 26.026 134.145 25.66 135.117 25.408C136.101 25.168 137.187 24.958 138.375 24.778C139.575 24.586 140.745 24.424 141.885 24.292C143.037 24.148 144.045 24.01 144.909 23.878L143.973 24.454C144.009 22.534 143.637 21.112 142.857 20.188C142.077 19.264 140.721 18.802 138.789 18.802C137.457 18.802 136.329 19.102 135.405 19.702C134.493 20.302 133.851 21.25 133.479 22.546L130.905 21.79C131.349 20.05 132.243 18.7 133.587 17.74C134.931 16.78 136.677 16.3 138.825 16.3C140.601 16.3 142.107 16.636 143.343 17.308C144.591 17.968 145.473 18.928 145.989 20.188C146.229 20.752 146.385 21.382 146.457 22.078C146.529 22.774 146.565 23.482 146.565 24.202V36.28H144.207V31.402L144.891 31.69C144.231 33.358 143.205 34.63 141.813 35.506C140.421 36.382 138.753 36.82 136.809 36.82ZM137.115 34.534C138.351 34.534 139.431 34.312 140.355 33.868C141.279 33.424 142.023 32.818 142.587 32.05C143.151 31.27 143.517 30.394 143.685 29.422C143.829 28.798 143.907 28.114 143.919 27.37C143.931 26.614 143.937 26.05 143.937 25.678L144.945 26.2C144.045 26.32 143.067 26.44 142.011 26.56C140.967 26.68 139.935 26.818 138.915 26.974C137.907 27.13 136.995 27.316 136.179 27.532C135.627 27.688 135.093 27.91 134.577 28.198C134.061 28.474 133.635 28.846 133.299 29.314C132.975 29.782 132.813 30.364 132.813 31.06C132.813 31.624 132.951 32.17 133.227 32.698C133.515 33.226 133.971 33.664 134.595 34.012C135.231 34.36 136.071 34.534 137.115 34.534Z" fill="#AFB4DB"/>
<path d="M174.434 36.28L174.452 23.518C174.452 22.018 174.032 20.842 173.192 19.99C172.364 19.126 171.308 18.694 170.024 18.694C169.292 18.694 168.578 18.862 167.882 19.198C167.186 19.534 166.61 20.074 166.154 20.818C165.71 21.562 165.488 22.534 165.488 23.734L163.922 23.284C163.886 21.892 164.156 20.674 164.732 19.63C165.32 18.586 166.124 17.776 167.144 17.2C168.176 16.612 169.34 16.318 170.636 16.318C172.592 16.318 174.158 16.924 175.334 18.136C176.51 19.336 177.098 20.962 177.098 23.014L177.08 36.28H174.434ZM151.232 36.28V16.84H153.608V21.628H153.896V36.28H151.232ZM162.86 36.28L162.878 23.698C162.878 22.15 162.464 20.932 161.636 20.044C160.82 19.144 159.74 18.694 158.396 18.694C157.052 18.694 155.966 19.156 155.138 20.08C154.31 20.992 153.896 22.21 153.896 23.734L152.312 22.87C152.312 21.622 152.606 20.506 153.194 19.522C153.782 18.526 154.586 17.746 155.606 17.182C156.626 16.606 157.784 16.318 159.08 16.318C160.316 16.318 161.414 16.582 162.374 17.11C163.346 17.638 164.108 18.406 164.66 19.414C165.212 20.422 165.488 21.646 165.488 23.086L165.47 36.28H162.86Z" fill="#AFB4DB"/>
<path d="M189.887 36.82C187.991 36.82 186.347 36.4 184.955 35.56C183.575 34.72 182.501 33.538 181.733 32.014C180.965 30.49 180.581 28.702 180.581 26.65C180.581 24.526 180.959 22.69 181.715 21.142C182.471 19.594 183.533 18.4 184.901 17.56C186.281 16.72 187.907 16.3 189.779 16.3C191.699 16.3 193.337 16.744 194.693 17.632C196.049 18.508 197.075 19.768 197.771 21.412C198.467 23.056 198.785 25.018 198.725 27.298H196.025V26.362C195.977 23.842 195.431 21.94 194.387 20.656C193.355 19.372 191.843 18.73 189.851 18.73C187.763 18.73 186.161 19.408 185.045 20.764C183.941 22.12 183.389 24.052 183.389 26.56C183.389 29.008 183.941 30.91 185.045 32.266C186.161 33.61 187.739 34.282 189.779 34.282C191.171 34.282 192.383 33.964 193.415 33.328C194.459 32.68 195.281 31.75 195.881 30.538L198.347 31.492C197.579 33.184 196.445 34.498 194.945 35.434C193.457 36.358 191.771 36.82 189.887 36.82ZM182.453 27.298V25.084H197.303V27.298H182.453Z" fill="#AFB4DB"/>
<path d="M209.973 36.802C207.693 36.802 205.815 36.31 204.339 35.326C202.875 34.342 201.975 32.974 201.639 31.222L204.339 30.772C204.627 31.876 205.281 32.758 206.301 33.418C207.333 34.066 208.605 34.39 210.117 34.39C211.593 34.39 212.757 34.084 213.609 33.472C214.461 32.848 214.887 32.002 214.887 30.934C214.887 30.334 214.749 29.848 214.473 29.476C214.209 29.092 213.663 28.738 212.835 28.414C212.007 28.09 210.771 27.706 209.127 27.262C207.363 26.782 205.983 26.302 204.987 25.822C203.991 25.342 203.283 24.79 202.863 24.166C202.443 23.53 202.233 22.756 202.233 21.844C202.233 20.74 202.545 19.774 203.169 18.946C203.793 18.106 204.657 17.458 205.761 17.002C206.865 16.534 208.149 16.3 209.613 16.3C211.077 16.3 212.385 16.54 213.537 17.02C214.701 17.488 215.637 18.148 216.345 19C217.053 19.852 217.473 20.842 217.605 21.97L214.905 22.456C214.725 21.316 214.155 20.416 213.195 19.756C212.247 19.084 211.041 18.736 209.577 18.712C208.197 18.676 207.075 18.94 206.211 19.504C205.347 20.056 204.915 20.794 204.915 21.718C204.915 22.234 205.071 22.678 205.383 23.05C205.695 23.41 206.259 23.752 207.075 24.076C207.903 24.4 209.079 24.754 210.603 25.138C212.391 25.594 213.795 26.074 214.815 26.578C215.835 27.082 216.561 27.676 216.993 28.36C217.425 29.044 217.641 29.89 217.641 30.898C217.641 32.734 216.957 34.18 215.589 35.236C214.233 36.28 212.361 36.802 209.973 36.802Z" fill="#AFB4DB"/>
<path d="M228.84 36.28V10.36H236.706C236.982 10.36 237.45 10.366 238.11 10.378C238.782 10.39 239.424 10.438 240.036 10.522C242.004 10.798 243.648 11.53 244.968 12.718C246.288 13.906 247.278 15.418 247.938 17.254C248.598 19.09 248.928 21.112 248.928 23.32C248.928 25.528 248.598 27.55 247.938 29.386C247.278 31.222 246.288 32.734 244.968 33.922C243.648 35.11 242.004 35.842 240.036 36.118C239.436 36.19 238.794 36.238 238.11 36.262C237.426 36.274 236.958 36.28 236.706 36.28H228.84ZM231.576 33.742H236.706C237.198 33.742 237.726 33.73 238.29 33.706C238.866 33.67 239.358 33.61 239.766 33.526C241.278 33.262 242.496 32.65 243.42 31.69C244.356 30.73 245.04 29.53 245.472 28.09C245.904 26.638 246.12 25.048 246.12 23.32C246.12 21.58 245.904 19.984 245.472 18.532C245.04 17.08 244.356 15.88 243.42 14.932C242.484 13.984 241.266 13.378 239.766 13.114C239.358 13.03 238.86 12.976 238.272 12.952C237.696 12.916 237.174 12.898 236.706 12.898H231.576V33.742Z" fill="#AFB4DB"/>
<path d="M258.59 36.82C257.126 36.82 255.896 36.556 254.9 36.028C253.916 35.5 253.178 34.798 252.686 33.922C252.194 33.046 251.948 32.092 251.948 31.06C251.948 30.004 252.158 29.104 252.578 28.36C253.01 27.604 253.592 26.986 254.324 26.506C255.068 26.026 255.926 25.66 256.898 25.408C257.882 25.168 258.968 24.958 260.156 24.778C261.356 24.586 262.526 24.424 263.666 24.292C264.818 24.148 265.826 24.01 266.69 23.878L265.754 24.454C265.79 22.534 265.418 21.112 264.638 20.188C263.858 19.264 262.502 18.802 260.57 18.802C259.238 18.802 258.11 19.102 257.186 19.702C256.274 20.302 255.632 21.25 255.26 22.546L252.686 21.79C253.13 20.05 254.024 18.7 255.368 17.74C256.712 16.78 258.458 16.3 260.606 16.3C262.382 16.3 263.888 16.636 265.124 17.308C266.372 17.968 267.254 18.928 267.77 20.188C268.01 20.752 268.166 21.382 268.238 22.078C268.31 22.774 268.346 23.482 268.346 24.202V36.28H265.988V31.402L266.672 31.69C266.012 33.358 264.986 34.63 263.594 35.506C262.202 36.382 260.534 36.82 258.59 36.82ZM258.896 34.534C260.132 34.534 261.212 34.312 262.136 33.868C263.06 33.424 263.804 32.818 264.368 32.05C264.932 31.27 265.298 30.394 265.466 29.422C265.61 28.798 265.688 28.114 265.7 27.37C265.712 26.614 265.718 26.05 265.718 25.678L266.726 26.2C265.826 26.32 264.848 26.44 263.792 26.56C262.748 26.68 261.716 26.818 260.696 26.974C259.688 27.13 258.776 27.316 257.96 27.532C257.408 27.688 256.874 27.91 256.358 28.198C255.842 28.474 255.416 28.846 255.08 29.314C254.756 29.782 254.594 30.364 254.594 31.06C254.594 31.624 254.732 32.17 255.008 32.698C255.296 33.226 255.752 33.664 256.376 34.012C257.012 34.36 257.852 34.534 258.896 34.534Z" fill="#AFB4DB"/>
<path d="M277.585 36.28L270.529 16.84H273.211L278.953 32.824L284.659 16.84H287.377L280.321 36.28H277.585Z" fill="#AFB4DB"/>
<path d="M290.97 13.15V10.18H293.616V13.15H290.97ZM290.97 36.28V16.84H293.616V36.28H290.97Z" fill="#AFB4DB"/>
<path d="M306.554 36.82C304.742 36.82 303.194 36.37 301.91 35.47C300.626 34.558 299.642 33.328 298.958 31.78C298.274 30.232 297.932 28.486 297.932 26.542C297.932 24.61 298.268 22.87 298.94 21.322C299.624 19.774 300.602 18.55 301.874 17.65C303.146 16.75 304.67 16.3 306.446 16.3C308.27 16.3 309.806 16.744 311.054 17.632C312.302 18.52 313.244 19.738 313.88 21.286C314.528 22.822 314.852 24.574 314.852 26.542C314.852 28.474 314.534 30.22 313.898 31.78C313.262 33.328 312.326 34.558 311.09 35.47C309.854 36.37 308.342 36.82 306.554 36.82ZM306.824 34.354C308.204 34.354 309.344 34.018 310.244 33.346C311.144 32.674 311.816 31.75 312.26 30.574C312.704 29.386 312.926 28.042 312.926 26.542C312.926 25.018 312.704 23.674 312.26 22.51C311.816 21.334 311.144 20.416 310.244 19.756C309.356 19.096 308.234 18.766 306.878 18.766C305.486 18.766 304.334 19.108 303.422 19.792C302.51 20.476 301.832 21.406 301.388 22.582C300.956 23.758 300.74 25.078 300.74 26.542C300.74 28.018 300.962 29.35 301.406 30.538C301.862 31.714 302.54 32.644 303.44 33.328C304.34 34.012 305.468 34.354 306.824 34.354ZM312.926 36.28V21.646H312.638V10.36H315.302V36.28H312.926Z" fill="#AFB4DB"/>
</svg>
