<svg width="189" height="32" viewBox="0 0 189 32" fill="none" xmlns="http://www.w3.org/2000/svg">
<path d="M70.2316 26.74C70.005 26.74 69.7316 26.7267 69.4116 26.7C69.105 26.6733 68.7916 26.6267 68.4716 26.56V24.52C68.725 24.5733 68.965 24.6133 69.1916 24.64C69.4316 24.6667 69.6316 24.68 69.7916 24.68C70.405 24.68 70.845 24.5 71.1116 24.14C71.3916 23.78 71.5316 23.2067 71.5316 22.42V8.9H74.1116V22.42C74.1116 23.38 73.9783 24.18 73.7116 24.82C73.445 25.46 73.025 25.94 72.4516 26.26C71.8916 26.58 71.1516 26.74 70.2316 26.74ZM80.9377 23.2C80.0577 23.2 79.2844 22.9933 78.6177 22.58C77.9511 22.1533 77.4311 21.5467 77.0577 20.76C76.6844 19.9733 76.4977 19.0333 76.4977 17.94C76.4977 16.8467 76.6844 15.9133 77.0577 15.14C77.4311 14.3533 77.9511 13.7533 78.6177 13.34C79.2844 12.9133 80.0577 12.7 80.9377 12.7C81.7911 12.7 82.5377 12.9133 83.1777 13.34C83.8311 13.7533 84.2644 14.3133 84.4777 15.02H84.2577L84.4777 12.9H86.8777C86.8377 13.3133 86.7977 13.7333 86.7577 14.16C86.7311 14.5867 86.7177 15.0067 86.7177 15.42V23H84.2377L84.2177 20.92H84.4577C84.2444 21.6133 83.8111 22.1667 83.1577 22.58C82.5044 22.9933 81.7644 23.2 80.9377 23.2ZM81.6377 21.28C82.4244 21.28 83.0577 21.0067 83.5377 20.46C84.0177 19.9 84.2577 19.06 84.2577 17.94C84.2577 16.82 84.0177 15.9867 83.5377 15.44C83.0577 14.8933 82.4244 14.62 81.6377 14.62C80.8511 14.62 80.2177 14.8933 79.7377 15.44C79.2577 15.9867 79.0177 16.82 79.0177 17.94C79.0177 19.06 79.2511 19.9 79.7177 20.46C80.1977 21.0067 80.8377 21.28 81.6377 21.28ZM89.4401 23V15.42C89.4401 15.0067 89.4267 14.5867 89.4001 14.16C89.3734 13.7333 89.3334 13.3133 89.2801 12.9H91.7001L91.9001 14.9H91.6601C91.9401 14.2067 92.3667 13.6667 92.9401 13.28C93.5267 12.8933 94.2201 12.7 95.0201 12.7C95.8201 12.7 96.4801 12.8933 97.0001 13.28C97.5334 13.6533 97.9067 14.24 98.1201 15.04H97.8001C98.0801 14.32 98.5401 13.7533 99.1801 13.34C99.8201 12.9133 100.553 12.7 101.38 12.7C102.513 12.7 103.36 13.0333 103.92 13.7C104.48 14.3667 104.76 15.4067 104.76 16.82V23H102.26V16.92C102.26 16.12 102.127 15.5467 101.86 15.2C101.593 14.84 101.167 14.66 100.58 14.66C99.8867 14.66 99.3401 14.9067 98.9401 15.4C98.5401 15.88 98.3401 16.5333 98.3401 17.36V23H95.8401V16.92C95.8401 16.12 95.7067 15.5467 95.4401 15.2C95.1734 14.84 94.7467 14.66 94.1601 14.66C93.4667 14.66 92.9201 14.9067 92.5201 15.4C92.1334 15.88 91.9401 16.5333 91.9401 17.36V23H89.4401ZM112.308 23.2C110.615 23.2 109.288 22.7333 108.328 21.8C107.368 20.8667 106.888 19.5867 106.888 17.96C106.888 16.9067 107.095 15.9867 107.508 15.2C107.922 14.4133 108.495 13.8 109.228 13.36C109.975 12.92 110.842 12.7 111.828 12.7C112.802 12.7 113.615 12.9067 114.268 13.32C114.922 13.7333 115.415 14.3133 115.748 15.06C116.095 15.8067 116.268 16.68 116.268 17.68V18.34H108.908V17.02H114.488L114.148 17.3C114.148 16.3667 113.948 15.6533 113.548 15.16C113.162 14.6667 112.595 14.42 111.848 14.42C111.022 14.42 110.382 14.7133 109.928 15.3C109.488 15.8867 109.268 16.7067 109.268 17.76V18.02C109.268 19.1133 109.535 19.9333 110.068 20.48C110.615 21.0133 111.382 21.28 112.368 21.28C112.942 21.28 113.475 21.2067 113.968 21.06C114.475 20.9 114.955 20.6467 115.408 20.3L116.148 21.98C115.668 22.3667 115.095 22.6667 114.428 22.88C113.762 23.0933 113.055 23.2 112.308 23.2ZM121.985 23.2C121.119 23.2 120.319 23.1 119.585 22.9C118.865 22.6867 118.259 22.3933 117.765 22.02L118.465 20.34C118.972 20.6867 119.532 20.9533 120.145 21.14C120.759 21.3267 121.379 21.42 122.005 21.42C122.672 21.42 123.165 21.3067 123.485 21.08C123.819 20.8533 123.985 20.5467 123.985 20.16C123.985 19.8533 123.879 19.6133 123.665 19.44C123.465 19.2533 123.139 19.1133 122.685 19.02L120.685 18.64C119.832 18.4533 119.179 18.1333 118.725 17.68C118.285 17.2267 118.065 16.6333 118.065 15.9C118.065 15.2733 118.232 14.72 118.565 14.24C118.912 13.76 119.399 13.3867 120.025 13.12C120.665 12.84 121.412 12.7 122.265 12.7C123.012 12.7 123.712 12.8 124.365 13C125.032 13.2 125.592 13.5 126.045 13.9L125.325 15.52C124.912 15.1867 124.439 14.9267 123.905 14.74C123.372 14.5533 122.852 14.46 122.345 14.46C121.652 14.46 121.145 14.5867 120.825 14.84C120.505 15.08 120.345 15.3933 120.345 15.78C120.345 16.0733 120.439 16.32 120.625 16.52C120.825 16.7067 121.132 16.8467 121.545 16.94L123.545 17.32C124.439 17.4933 125.112 17.8 125.565 18.24C126.032 18.6667 126.265 19.2533 126.265 20C126.265 20.6667 126.085 21.24 125.725 21.72C125.365 22.2 124.865 22.5667 124.225 22.82C123.585 23.0733 122.839 23.2 121.985 23.2Z" fill="#7115B2"/>
<path d="M134.093 23V8.9H139.213C140.827 8.9 142.187 9.18 143.293 9.74C144.413 10.2867 145.26 11.0867 145.833 12.14C146.407 13.18 146.693 14.4467 146.693 15.94C146.693 17.42 146.407 18.6867 145.833 19.74C145.26 20.7933 144.413 21.6 143.293 22.16C142.187 22.72 140.827 23 139.213 23H134.093ZM136.673 20.86H139.053C140.76 20.86 142.027 20.4533 142.853 19.64C143.68 18.8267 144.093 17.5933 144.093 15.94C144.093 14.2733 143.68 13.04 142.853 12.24C142.027 11.4267 140.76 11.02 139.053 11.02H136.673V20.86ZM153.028 23.2C152.148 23.2 151.374 22.9933 150.708 22.58C150.041 22.1533 149.521 21.5467 149.148 20.76C148.774 19.9733 148.588 19.0333 148.588 17.94C148.588 16.8467 148.774 15.9133 149.148 15.14C149.521 14.3533 150.041 13.7533 150.708 13.34C151.374 12.9133 152.148 12.7 153.028 12.7C153.881 12.7 154.628 12.9133 155.268 13.34C155.921 13.7533 156.354 14.3133 156.568 15.02H156.348L156.568 12.9H158.968C158.928 13.3133 158.888 13.7333 158.848 14.16C158.821 14.5867 158.808 15.0067 158.808 15.42V23H156.328L156.308 20.92H156.548C156.334 21.6133 155.901 22.1667 155.248 22.58C154.594 22.9933 153.854 23.2 153.028 23.2ZM153.728 21.28C154.514 21.28 155.148 21.0067 155.628 20.46C156.108 19.9 156.348 19.06 156.348 17.94C156.348 16.82 156.108 15.9867 155.628 15.44C155.148 14.8933 154.514 14.62 153.728 14.62C152.941 14.62 152.308 14.8933 151.828 15.44C151.348 15.9867 151.108 16.82 151.108 17.94C151.108 19.06 151.341 19.9 151.808 20.46C152.288 21.0067 152.928 21.28 153.728 21.28ZM164.392 23L160.032 12.9H162.692L165.852 20.8H165.232L168.472 12.9H170.972L166.592 23H164.392ZM172.311 23V12.9H174.811V23H172.311ZM172.171 11V8.56H174.951V11H172.171ZM181.446 23.2C180.566 23.2 179.786 22.9933 179.106 22.58C178.439 22.1533 177.919 21.5467 177.546 20.76C177.173 19.9733 176.986 19.0333 176.986 17.94C176.986 16.8467 177.173 15.9133 177.546 15.14C177.919 14.3533 178.439 13.7533 179.106 13.34C179.786 12.9133 180.566 12.7 181.446 12.7C182.286 12.7 183.026 12.9067 183.666 13.32C184.319 13.72 184.753 14.2667 184.966 14.96H184.706V8.28H187.206V23H184.746V20.86H184.986C184.773 21.58 184.339 22.1533 183.686 22.58C183.046 22.9933 182.299 23.2 181.446 23.2ZM182.146 21.28C182.933 21.28 183.566 21.0067 184.046 20.46C184.526 19.9 184.766 19.06 184.766 17.94C184.766 16.82 184.526 15.9867 184.046 15.44C183.566 14.8933 182.933 14.62 182.146 14.62C181.359 14.62 180.719 14.8933 180.226 15.44C179.746 15.9867 179.506 16.82 179.506 17.94C179.506 19.06 179.746 19.9 180.226 20.46C180.719 21.0067 181.359 21.28 182.146 21.28Z" fill="#A245E5"/>
<path fill-rule="evenodd" clip-rule="evenodd" d="M60 16C60 24.8365 52.8366 31.9999 44.0001 32V0C52.8366 7.52485e-05 60 7.16349 60 16ZM28 16L28.0001 15.9325V16.0675L28 16ZM44 0H36V32H44V0Z" fill="#A245E5"/>
<path fill-rule="evenodd" clip-rule="evenodd" d="M15.9846 32C24.8297 32 32 24.8366 32 16C32 7.16344 24.8297 0 15.9846 0V17H0C0.516693 25.3707 7.47574 32 15.9846 32Z" fill="#7115B2"/>
</svg>
