<svg width="185" height="32" viewBox="0 0 185 32" fill="none" xmlns="http://www.w3.org/2000/svg">
<path d="M78.0585 26.366C77.8545 26.366 77.6085 26.354 77.3205 26.33C77.0445 26.306 76.7625 26.264 76.4745 26.204V24.368C76.7025 24.416 76.9185 24.452 77.1225 24.476C77.3385 24.5 77.5185 24.512 77.6625 24.512C78.2145 24.512 78.6105 24.35 78.8505 24.026C79.1025 23.702 79.2285 23.186 79.2285 22.478V10.31H81.5505V22.478C81.5505 23.342 81.4305 24.062 81.1905 24.638C80.9505 25.214 80.5725 25.646 80.0565 25.934C79.5525 26.222 78.8865 26.366 78.0585 26.366ZM87.694 23.18C86.902 23.18 86.206 22.994 85.606 22.622C85.006 22.238 84.538 21.692 84.202 20.984C83.866 20.276 83.698 19.43 83.698 18.446C83.698 17.462 83.866 16.622 84.202 15.926C84.538 15.218 85.006 14.678 85.606 14.306C86.206 13.922 86.902 13.73 87.694 13.73C88.462 13.73 89.134 13.922 89.71 14.306C90.298 14.678 90.688 15.182 90.88 15.818H90.682L90.88 13.91H93.04C93.004 14.282 92.968 14.66 92.932 15.044C92.908 15.428 92.896 15.806 92.896 16.178V23H90.664L90.646 21.128H90.862C90.67 21.752 90.28 22.25 89.692 22.622C89.104 22.994 88.438 23.18 87.694 23.18ZM88.324 21.452C89.032 21.452 89.602 21.206 90.034 20.714C90.466 20.21 90.682 19.454 90.682 18.446C90.682 17.438 90.466 16.688 90.034 16.196C89.602 15.704 89.032 15.458 88.324 15.458C87.616 15.458 87.046 15.704 86.614 16.196C86.182 16.688 85.966 17.438 85.966 18.446C85.966 19.454 86.176 20.21 86.596 20.714C87.028 21.206 87.604 21.452 88.324 21.452ZM95.3461 23V16.178C95.3461 15.806 95.3341 15.428 95.3101 15.044C95.2861 14.66 95.2501 14.282 95.2021 13.91H97.3801L97.5601 15.71H97.3441C97.5961 15.086 97.9801 14.6 98.4961 14.252C99.0241 13.904 99.6481 13.73 100.368 13.73C101.088 13.73 101.682 13.904 102.15 14.252C102.63 14.588 102.966 15.116 103.158 15.836H102.87C103.122 15.188 103.536 14.678 104.112 14.306C104.688 13.922 105.348 13.73 106.092 13.73C107.112 13.73 107.874 14.03 108.378 14.63C108.882 15.23 109.134 16.166 109.134 17.438V23H106.884V17.528C106.884 16.808 106.764 16.292 106.524 15.98C106.284 15.656 105.9 15.494 105.372 15.494C104.748 15.494 104.256 15.716 103.896 16.16C103.536 16.592 103.356 17.18 103.356 17.924V23H101.106V17.528C101.106 16.808 100.986 16.292 100.746 15.98C100.506 15.656 100.122 15.494 99.5941 15.494C98.9701 15.494 98.4781 15.716 98.1181 16.16C97.7701 16.592 97.5961 17.18 97.5961 17.924V23H95.3461ZM115.928 23.18C114.404 23.18 113.21 22.76 112.346 21.92C111.482 21.08 111.05 19.928 111.05 18.464C111.05 17.516 111.236 16.688 111.608 15.98C111.98 15.272 112.496 14.72 113.156 14.324C113.828 13.928 114.608 13.73 115.496 13.73C116.372 13.73 117.104 13.916 117.692 14.288C118.28 14.66 118.724 15.182 119.024 15.854C119.336 16.526 119.492 17.312 119.492 18.212V18.806H112.868V17.618H117.89L117.584 17.87C117.584 17.03 117.404 16.388 117.044 15.944C116.696 15.5 116.186 15.278 115.514 15.278C114.77 15.278 114.194 15.542 113.786 16.07C113.39 16.598 113.192 17.336 113.192 18.284V18.518C113.192 19.502 113.432 20.24 113.912 20.732C114.404 21.212 115.094 21.452 115.982 21.452C116.498 21.452 116.978 21.386 117.422 21.254C117.878 21.11 118.31 20.882 118.718 20.57L119.384 22.082C118.952 22.43 118.436 22.7 117.836 22.892C117.236 23.084 116.6 23.18 115.928 23.18ZM124.637 23.18C123.857 23.18 123.137 23.09 122.477 22.91C121.829 22.718 121.283 22.454 120.839 22.118L121.469 20.606C121.925 20.918 122.429 21.158 122.981 21.326C123.533 21.494 124.091 21.578 124.655 21.578C125.255 21.578 125.699 21.476 125.987 21.272C126.287 21.068 126.437 20.792 126.437 20.444C126.437 20.168 126.341 19.952 126.149 19.796C125.969 19.628 125.675 19.502 125.267 19.418L123.467 19.076C122.699 18.908 122.111 18.62 121.703 18.212C121.307 17.804 121.109 17.27 121.109 16.61C121.109 16.046 121.259 15.548 121.559 15.116C121.871 14.684 122.309 14.348 122.873 14.108C123.449 13.856 124.121 13.73 124.889 13.73C125.561 13.73 126.191 13.82 126.779 14C127.379 14.18 127.883 14.45 128.291 14.81L127.643 16.268C127.271 15.968 126.845 15.734 126.365 15.566C125.885 15.398 125.417 15.314 124.961 15.314C124.337 15.314 123.881 15.428 123.593 15.656C123.305 15.872 123.161 16.154 123.161 16.502C123.161 16.766 123.245 16.988 123.413 17.168C123.593 17.336 123.869 17.462 124.241 17.546L126.041 17.888C126.845 18.044 127.451 18.32 127.859 18.716C128.279 19.1 128.489 19.628 128.489 20.3C128.489 20.9 128.327 21.416 128.003 21.848C127.679 22.28 127.229 22.61 126.653 22.838C126.077 23.066 125.405 23.18 124.637 23.18Z" fill="#7115B2"/>
<path d="M135.534 23V10.31H140.142C141.594 10.31 142.818 10.562 143.814 11.066C144.822 11.558 145.584 12.278 146.1 13.226C146.616 14.162 146.874 15.302 146.874 16.646C146.874 17.978 146.616 19.118 146.1 20.066C145.584 21.014 144.822 21.74 143.814 22.244C142.818 22.748 141.594 23 140.142 23H135.534ZM137.856 21.074H139.998C141.534 21.074 142.674 20.708 143.418 19.976C144.162 19.244 144.534 18.134 144.534 16.646C144.534 15.146 144.162 14.036 143.418 13.316C142.674 12.584 141.534 12.218 139.998 12.218H137.856V21.074ZM152.575 23.18C151.783 23.18 151.087 22.994 150.487 22.622C149.887 22.238 149.419 21.692 149.083 20.984C148.747 20.276 148.579 19.43 148.579 18.446C148.579 17.462 148.747 16.622 149.083 15.926C149.419 15.218 149.887 14.678 150.487 14.306C151.087 13.922 151.783 13.73 152.575 13.73C153.343 13.73 154.015 13.922 154.591 14.306C155.179 14.678 155.569 15.182 155.761 15.818H155.563L155.761 13.91H157.921C157.885 14.282 157.849 14.66 157.813 15.044C157.789 15.428 157.777 15.806 157.777 16.178V23H155.545L155.527 21.128H155.743C155.551 21.752 155.161 22.25 154.573 22.622C153.985 22.994 153.319 23.18 152.575 23.18ZM153.205 21.452C153.913 21.452 154.483 21.206 154.915 20.714C155.347 20.21 155.563 19.454 155.563 18.446C155.563 17.438 155.347 16.688 154.915 16.196C154.483 15.704 153.913 15.458 153.205 15.458C152.497 15.458 151.927 15.704 151.495 16.196C151.063 16.688 150.847 17.438 150.847 18.446C150.847 19.454 151.057 20.21 151.477 20.714C151.909 21.206 152.485 21.452 153.205 21.452ZM162.803 23L158.879 13.91H161.273L164.117 21.02H163.559L166.475 13.91H168.725L164.783 23H162.803ZM169.93 23V13.91H172.18V23H169.93ZM169.804 12.2V10.004H172.306V12.2H169.804ZM178.151 23.18C177.359 23.18 176.657 22.994 176.045 22.622C175.445 22.238 174.977 21.692 174.641 20.984C174.305 20.276 174.137 19.43 174.137 18.446C174.137 17.462 174.305 16.622 174.641 15.926C174.977 15.218 175.445 14.678 176.045 14.306C176.657 13.922 177.359 13.73 178.151 13.73C178.907 13.73 179.573 13.916 180.149 14.288C180.737 14.648 181.127 15.14 181.319 15.764H181.085V9.752H183.335V23H181.121V21.074H181.337C181.145 21.722 180.755 22.238 180.167 22.622C179.591 22.994 178.919 23.18 178.151 23.18ZM178.781 21.452C179.489 21.452 180.059 21.206 180.491 20.714C180.923 20.21 181.139 19.454 181.139 18.446C181.139 17.438 180.923 16.688 180.491 16.196C180.059 15.704 179.489 15.458 178.781 15.458C178.073 15.458 177.497 15.704 177.053 16.196C176.621 16.688 176.405 17.438 176.405 18.446C176.405 19.454 176.621 20.21 177.053 20.714C177.497 21.206 178.073 21.452 178.781 21.452Z" fill="#A245E5"/>
<path fill-rule="evenodd" clip-rule="evenodd" d="M60 16C60 24.8365 52.8366 31.9999 44.0001 32V0C52.8366 7.52485e-05 60 7.16349 60 16ZM28 16L28.0001 15.9325V16.0675L28 16ZM44 0H36V32H44V0Z" fill="#A245E5"/>
<path fill-rule="evenodd" clip-rule="evenodd" d="M15.9846 32C24.8297 32 32 24.8366 32 16C32 7.16344 24.8297 0 15.9846 0V17H0C0.516693 25.3707 7.47574 32 15.9846 32Z" fill="#7115B2"/>
</svg>
