<svg width="327" height="47" viewBox="0 0 327 47" fill="none" xmlns="http://www.w3.org/2000/svg">
<path d="M8.32143 36.776C5.82543 36.776 3.84543 36.008 2.38142 34.472C0.917425 32.912 0.185425 30.824 0.185425 28.208H3.46142C3.46142 29.936 3.89342 31.304 4.75742 32.312C5.64542 33.32 6.83343 33.824 8.32143 33.824C9.83343 33.824 11.0094 33.32 11.8494 32.312C12.7134 31.28 13.1454 29.888 13.1454 28.136V11H16.4214V28.136C16.4214 30.776 15.7014 32.876 14.2614 34.436C12.8214 35.996 10.8414 36.776 8.32143 36.776Z" fill="#AFB4DB"/>
<path d="M28.2342 36.632C25.6662 36.632 23.6502 35.816 22.1862 34.184C20.7462 32.552 20.0262 30.464 20.0262 27.92C20.0262 25.4 20.7702 23.312 22.2582 21.656C23.7702 20 25.7862 19.172 28.3062 19.172C29.6022 19.172 30.7662 19.472 31.7982 20.072C32.8302 20.672 33.6102 21.488 34.1382 22.52V19.604H37.2342V36.2H34.1382V33.284C33.6102 34.292 32.8062 35.108 31.7262 35.732C30.6462 36.332 29.4822 36.632 28.2342 36.632ZM28.6662 33.824C30.4182 33.824 31.7862 33.26 32.7702 32.132C33.7782 30.98 34.2822 29.576 34.2822 27.92C34.2822 26.24 33.7782 24.836 32.7702 23.708C31.7862 22.556 30.4182 21.98 28.6662 21.98C26.9862 21.98 25.6422 22.544 24.6342 23.672C23.6262 24.776 23.1222 26.192 23.1222 27.92C23.1222 29.648 23.6262 31.064 24.6342 32.168C25.6422 33.272 26.9862 33.824 28.6662 33.824Z" fill="#AFB4DB"/>
<path d="M42.6277 36.2V19.604H45.7597V22.628C46.0957 21.644 46.6957 20.828 47.5597 20.18C48.4237 19.508 49.4797 19.172 50.7277 19.172C53.5837 19.172 55.3597 20.36 56.0557 22.736C56.4397 21.704 57.1117 20.852 58.0717 20.18C59.0317 19.508 60.1357 19.172 61.3837 19.172C65.3677 19.172 67.3597 21.344 67.3597 25.688V36.2H64.2277V26.3C64.2277 23.348 63.0277 21.872 60.6277 21.872C57.9157 21.872 56.5597 23.768 56.5597 27.56V36.2H53.4277V26.516C53.4277 23.42 52.2397 21.872 49.8637 21.872C48.5677 21.872 47.5597 22.352 46.8397 23.312C46.1197 24.248 45.7597 25.664 45.7597 27.56V36.2H42.6277Z" fill="#AFB4DB"/>
<path d="M87.3049 26.948C87.3049 27.404 87.2689 28.028 87.1969 28.82H74.3449C74.3689 30.404 74.8489 31.652 75.7849 32.564C76.7209 33.452 77.9809 33.896 79.5649 33.896C81.7729 33.896 83.2369 33.08 83.9569 31.448H87.0889C86.8009 32.984 85.9609 34.232 84.5689 35.192C83.1769 36.152 81.5089 36.632 79.5649 36.632C77.0209 36.632 74.9929 35.852 73.4809 34.292C71.9929 32.708 71.2489 30.572 71.2489 27.884C71.2489 25.244 71.9929 23.132 73.4809 21.548C74.9689 19.964 76.9489 19.172 79.4209 19.172C81.7729 19.172 83.6689 19.892 85.1089 21.332C86.5729 22.772 87.3049 24.644 87.3049 26.948ZM74.3449 26.408H84.2089C84.2089 24.944 83.7769 23.792 82.9129 22.952C82.0729 22.112 80.8969 21.692 79.3849 21.692C77.8969 21.692 76.6969 22.124 75.7849 22.988C74.8969 23.852 74.4169 24.992 74.3449 26.408Z" fill="#AFB4DB"/>
<path d="M96.9343 36.632C94.8463 36.632 93.1663 36.116 91.8943 35.084C90.6463 34.028 90.0223 32.744 90.0223 31.232H93.1183C93.1183 32.072 93.4783 32.768 94.1983 33.32C94.9183 33.848 95.8783 34.112 97.0783 34.112C98.0143 34.112 98.7583 33.896 99.3103 33.464C99.8623 33.032 100.138 32.444 100.138 31.7C100.138 30.524 99.5983 29.804 98.5183 29.54L94.0903 28.388C91.7143 27.74 90.5263 26.252 90.5263 23.924C90.5263 22.556 91.1023 21.428 92.2543 20.54C93.4063 19.628 94.9063 19.172 96.7543 19.172C98.7703 19.172 100.33 19.64 101.434 20.576C102.562 21.488 103.126 22.688 103.126 24.176H100.03C100.03 23.384 99.7303 22.76 99.1303 22.304C98.5303 21.824 97.6903 21.584 96.6103 21.584C95.7463 21.584 95.0263 21.788 94.4503 22.196C93.8983 22.58 93.6223 23.108 93.6223 23.78C93.6223 24.908 94.2343 25.616 95.4583 25.904L99.5983 27.056C100.774 27.368 101.686 27.92 102.334 28.712C102.982 29.504 103.306 30.404 103.306 31.412C103.306 32.996 102.742 34.268 101.614 35.228C100.486 36.164 98.9263 36.632 96.9343 36.632Z" fill="#AFB4DB"/>
<path d="M116.847 36.2V11H124.875C128.859 11 131.991 12.236 134.271 14.708C136.551 17.18 137.691 20.144 137.691 23.6C137.691 27.056 136.551 30.02 134.271 32.492C131.991 34.964 128.859 36.2 124.875 36.2H116.847ZM120.123 33.248H124.623C127.719 33.248 130.107 32.3 131.787 30.404C133.467 28.508 134.307 26.24 134.307 23.6C134.307 20.936 133.467 18.668 131.787 16.796C130.107 14.9 127.719 13.952 124.623 13.952H120.123V33.248Z" fill="#AFB4DB"/>
<path d="M148.433 36.632C145.865 36.632 143.849 35.816 142.385 34.184C140.945 32.552 140.225 30.464 140.225 27.92C140.225 25.4 140.969 23.312 142.457 21.656C143.969 20 145.985 19.172 148.505 19.172C149.801 19.172 150.965 19.472 151.997 20.072C153.029 20.672 153.809 21.488 154.337 22.52V19.604H157.433V36.2H154.337V33.284C153.809 34.292 153.005 35.108 151.925 35.732C150.845 36.332 149.681 36.632 148.433 36.632ZM148.865 33.824C150.617 33.824 151.985 33.26 152.969 32.132C153.977 30.98 154.481 29.576 154.481 27.92C154.481 26.24 153.977 24.836 152.969 23.708C151.985 22.556 150.617 21.98 148.865 21.98C147.185 21.98 145.841 22.544 144.833 23.672C143.825 24.776 143.321 26.192 143.321 27.92C143.321 29.648 143.825 31.064 144.833 32.168C145.841 33.272 147.185 33.824 148.865 33.824Z" fill="#AFB4DB"/>
<path d="M167.543 36.2L160.235 19.604H163.583L168.803 32.024L174.059 19.604H177.407L170.099 36.2H167.543Z" fill="#AFB4DB"/>
<path d="M181.813 16.76C181.069 16.76 180.457 16.52 179.977 16.04C179.497 15.56 179.257 14.96 179.257 14.24C179.257 13.52 179.497 12.92 179.977 12.44C180.457 11.936 181.069 11.684 181.813 11.684C182.533 11.684 183.133 11.936 183.613 12.44C184.093 12.92 184.333 13.52 184.333 14.24C184.333 14.96 184.093 15.56 183.613 16.04C183.133 16.52 182.533 16.76 181.813 16.76ZM180.229 36.2V19.604H183.361V36.2H180.229Z" fill="#AFB4DB"/>
<path d="M201.516 11H204.648V36.2H201.552V33.284C201.024 34.292 200.22 35.108 199.14 35.732C198.06 36.332 196.896 36.632 195.648 36.632C193.08 36.632 191.064 35.816 189.6 34.184C188.16 32.552 187.44 30.464 187.44 27.92C187.44 25.4 188.184 23.312 189.672 21.656C191.184 20 193.2 19.172 195.72 19.172C197.016 19.172 198.18 19.472 199.212 20.072C200.244 20.672 201.024 21.488 201.552 22.52V20.792H201.516V11ZM196.08 33.824C197.832 33.824 199.2 33.26 200.184 32.132C201.192 30.98 201.696 29.576 201.696 27.92C201.696 26.24 201.192 24.836 200.184 23.708C199.2 22.556 197.832 21.98 196.08 21.98C194.4 21.98 193.056 22.544 192.048 23.672C191.04 24.776 190.536 26.192 190.536 27.92C190.536 29.648 191.04 31.064 192.048 32.168C193.056 33.272 194.4 33.824 196.08 33.824Z" fill="#AFB4DB"/>
<path d="M212.49 36.452C211.746 36.452 211.122 36.2 210.618 35.696C210.114 35.168 209.862 34.544 209.862 33.824C209.862 33.104 210.114 32.492 210.618 31.988C211.122 31.46 211.746 31.196 212.49 31.196C213.21 31.196 213.822 31.46 214.326 31.988C214.854 32.492 215.118 33.104 215.118 33.824C215.118 34.544 214.854 35.168 214.326 35.696C213.822 36.2 213.21 36.452 212.49 36.452Z" fill="#AFB4DB"/>
<path fill-rule="evenodd" clip-rule="evenodd" d="M247 6.95673L286.998 46.9087L288.109 45.7988L288.101 45.7905L327 6.95223L325.889 5.84209L286.989 44.6805L287.531 45.2218L248.111 5.84682L247 6.95673Z" fill="#12130F"/>
<path d="M264.779 22.4954L287.002 0.297254L309.226 22.4954L287.002 44.6936L264.779 22.4954Z" fill="#A6A5C4"/>
<path d="M257.001 14.7261L264.779 6.95672L272.557 14.7261L264.779 22.4954L257.001 14.7261Z" fill="#AFB4DB"/>
<path d="M301.448 14.7261L309.226 6.95672L317.004 14.7261L309.226 22.4954L301.448 14.7261Z" fill="#AFB4DB"/>
<path fill-rule="evenodd" clip-rule="evenodd" d="M279.039 24.5161C279.039 24.1958 279.023 23.9857 279 23.7448H282.093C282.111 23.9913 282.123 24.2483 282.123 24.5161C282.123 26.9618 283.749 29.0276 285.978 29.6914V16.0321H287.368C287.86 15.9885 288.335 15.9901 288.793 16.0321H289.062V16.0617C293.346 16.612 296 20.7452 296 24.5161C296 29.2016 292.203 33 287.52 33C282.836 33 279.039 29.2016 279.039 24.5161ZM289.062 19.2097V29.6914C291.291 29.0276 292.916 26.9618 292.916 24.5161C292.916 22.0593 291.333 19.7545 289.062 19.2097Z" fill="white"/>
</svg>
