<svg width="324" height="47" viewBox="0 0 324 47" fill="none" xmlns="http://www.w3.org/2000/svg">
<path fill-rule="evenodd" clip-rule="evenodd" d="M243.934 6.95673L283.932 46.9087L285.043 45.7988L285.035 45.7905L323.934 6.95223L322.823 5.84209L283.924 44.6805L284.465 45.2218L245.045 5.84682L243.934 6.95673Z" fill="white"/>
<path d="M261.713 22.4954L283.936 0.297255L306.16 22.4954L283.936 44.6936L261.713 22.4954Z" fill="#A6A5C4"/>
<path d="M253.935 14.7261L261.713 6.95672L269.491 14.7261L261.713 22.4954L253.935 14.7261Z" fill="#AFB4DB"/>
<path d="M298.382 14.7261L306.16 6.95672L313.938 14.7261L306.16 22.4954L298.382 14.7261Z" fill="#AFB4DB"/>
<path fill-rule="evenodd" clip-rule="evenodd" d="M275.973 24.5161C275.973 24.1958 275.957 23.9857 275.934 23.7448H279.027C279.045 23.9913 279.057 24.2483 279.057 24.5161C279.057 26.9618 280.683 29.0276 282.912 29.6914V16.0321H284.302C284.794 15.9885 285.269 15.9901 285.727 16.0321H285.996V16.0617C290.28 16.612 292.934 20.7452 292.934 24.5161C292.934 29.2016 289.137 33 284.454 33C279.77 33 275.973 29.2016 275.973 24.5161ZM285.996 19.2097V29.6914C288.225 29.0276 289.85 26.9618 289.85 24.5161C289.85 22.0593 288.267 19.7545 285.996 19.2097Z" fill="white"/>
<path d="M6.97534 37.522C5.24734 37.522 3.76534 37.042 2.52934 36.082C1.29334 35.122 0.459344 33.838 0.0273438 32.23L2.67334 31.6C2.88934 32.548 3.38734 33.352 4.16734 34.012C4.95934 34.66 5.88934 34.984 6.95734 34.984C7.62934 34.984 8.30734 34.822 8.99134 34.498C9.68734 34.174 10.2333 33.64 10.6293 32.896C10.8933 32.38 11.0433 31.822 11.0793 31.222C11.1273 30.61 11.1513 29.878 11.1513 29.026V11.08H13.8153V29.026C13.8153 29.746 13.8093 30.4 13.7973 30.988C13.7853 31.564 13.7193 32.122 13.5993 32.662C13.4913 33.19 13.2813 33.724 12.9693 34.264C12.3453 35.356 11.5053 36.172 10.4493 36.712C9.40534 37.252 8.24734 37.522 6.97534 37.522Z" fill="#AFB4DB"/>
<path d="M24.8086 37.54C23.3446 37.54 22.1146 37.276 21.1186 36.748C20.1346 36.22 19.3966 35.518 18.9046 34.642C18.4126 33.766 18.1666 32.812 18.1666 31.78C18.1666 30.724 18.3766 29.824 18.7966 29.08C19.2286 28.324 19.8106 27.706 20.5426 27.226C21.2866 26.746 22.1446 26.38 23.1166 26.128C24.1006 25.888 25.1866 25.678 26.3746 25.498C27.5746 25.306 28.7446 25.144 29.8846 25.012C31.0366 24.868 32.0446 24.73 32.9086 24.598L31.9726 25.174C32.0086 23.254 31.6366 21.832 30.8566 20.908C30.0766 19.984 28.7206 19.522 26.7886 19.522C25.4566 19.522 24.3286 19.822 23.4046 20.422C22.4926 21.022 21.8506 21.97 21.4786 23.266L18.9046 22.51C19.3486 20.77 20.2426 19.42 21.5866 18.46C22.9306 17.5 24.6766 17.02 26.8246 17.02C28.6006 17.02 30.1066 17.356 31.3426 18.028C32.5906 18.688 33.4726 19.648 33.9886 20.908C34.2286 21.472 34.3846 22.102 34.4566 22.798C34.5286 23.494 34.5646 24.202 34.5646 24.922V37H32.2066V32.122L32.8906 32.41C32.2306 34.078 31.2046 35.35 29.8126 36.226C28.4206 37.102 26.7526 37.54 24.8086 37.54ZM25.1146 35.254C26.3506 35.254 27.4306 35.032 28.3546 34.588C29.2786 34.144 30.0226 33.538 30.5866 32.77C31.1506 31.99 31.5166 31.114 31.6846 30.142C31.8286 29.518 31.9066 28.834 31.9186 28.09C31.9306 27.334 31.9366 26.77 31.9366 26.398L32.9446 26.92C32.0446 27.04 31.0666 27.16 30.0106 27.28C28.9666 27.4 27.9346 27.538 26.9146 27.694C25.9066 27.85 24.9946 28.036 24.1786 28.252C23.6266 28.408 23.0926 28.63 22.5766 28.918C22.0606 29.194 21.6346 29.566 21.2986 30.034C20.9746 30.502 20.8126 31.084 20.8126 31.78C20.8126 32.344 20.9506 32.89 21.2266 33.418C21.5146 33.946 21.9706 34.384 22.5946 34.732C23.2306 35.08 24.0706 35.254 25.1146 35.254Z" fill="#AFB4DB"/>
<path d="M62.4345 37L62.4525 24.238C62.4525 22.738 62.0325 21.562 61.1925 20.71C60.3645 19.846 59.3085 19.414 58.0245 19.414C57.2925 19.414 56.5785 19.582 55.8825 19.918C55.1865 20.254 54.6105 20.794 54.1545 21.538C53.7105 22.282 53.4885 23.254 53.4885 24.454L51.9225 24.004C51.8865 22.612 52.1565 21.394 52.7325 20.35C53.3205 19.306 54.1245 18.496 55.1445 17.92C56.1765 17.332 57.3405 17.038 58.6365 17.038C60.5925 17.038 62.1585 17.644 63.3345 18.856C64.5105 20.056 65.0985 21.682 65.0985 23.734L65.0805 37H62.4345ZM39.2325 37V17.56H41.6085V22.348H41.8965V37H39.2325ZM50.8605 37L50.8785 24.418C50.8785 22.87 50.4645 21.652 49.6365 20.764C48.8205 19.864 47.7405 19.414 46.3965 19.414C45.0525 19.414 43.9665 19.876 43.1385 20.8C42.3105 21.712 41.8965 22.93 41.8965 24.454L40.3125 23.59C40.3125 22.342 40.6065 21.226 41.1945 20.242C41.7825 19.246 42.5865 18.466 43.6065 17.902C44.6265 17.326 45.7845 17.038 47.0805 17.038C48.3165 17.038 49.4145 17.302 50.3745 17.83C51.3465 18.358 52.1085 19.126 52.6605 20.134C53.2125 21.142 53.4885 22.366 53.4885 23.806L53.4705 37H50.8605Z" fill="#AFB4DB"/>
<path d="M77.8866 37.54C75.9906 37.54 74.3466 37.12 72.9546 36.28C71.5746 35.44 70.5006 34.258 69.7326 32.734C68.9646 31.21 68.5806 29.422 68.5806 27.37C68.5806 25.246 68.9586 23.41 69.7146 21.862C70.4706 20.314 71.5326 19.12 72.9006 18.28C74.2806 17.44 75.9066 17.02 77.7786 17.02C79.6986 17.02 81.3366 17.464 82.6926 18.352C84.0486 19.228 85.0746 20.488 85.7706 22.132C86.4666 23.776 86.7846 25.738 86.7246 28.018H84.0246V27.082C83.9766 24.562 83.4306 22.66 82.3866 21.376C81.3546 20.092 79.8426 19.45 77.8506 19.45C75.7626 19.45 74.1606 20.128 73.0446 21.484C71.9406 22.84 71.3886 24.772 71.3886 27.28C71.3886 29.728 71.9406 31.63 73.0446 32.986C74.1606 34.33 75.7386 35.002 77.7786 35.002C79.1706 35.002 80.3826 34.684 81.4146 34.048C82.4586 33.4 83.2806 32.47 83.8806 31.258L86.3466 32.212C85.5786 33.904 84.4446 35.218 82.9446 36.154C81.4566 37.078 79.7706 37.54 77.8866 37.54ZM70.4526 28.018V25.804H85.3026V28.018H70.4526Z" fill="#AFB4DB"/>
<path d="M97.9732 37.522C95.6932 37.522 93.8152 37.03 92.3392 36.046C90.8752 35.062 89.9752 33.694 89.6392 31.942L92.3392 31.492C92.6272 32.596 93.2812 33.478 94.3012 34.138C95.3332 34.786 96.6052 35.11 98.1172 35.11C99.5932 35.11 100.757 34.804 101.609 34.192C102.461 33.568 102.887 32.722 102.887 31.654C102.887 31.054 102.749 30.568 102.473 30.196C102.209 29.812 101.663 29.458 100.835 29.134C100.007 28.81 98.7712 28.426 97.1272 27.982C95.3632 27.502 93.9832 27.022 92.9872 26.542C91.9912 26.062 91.2832 25.51 90.8632 24.886C90.4432 24.25 90.2332 23.476 90.2332 22.564C90.2332 21.46 90.5452 20.494 91.1692 19.666C91.7932 18.826 92.6572 18.178 93.7612 17.722C94.8652 17.254 96.1492 17.02 97.6132 17.02C99.0772 17.02 100.385 17.26 101.537 17.74C102.701 18.208 103.637 18.868 104.345 19.72C105.053 20.572 105.473 21.562 105.605 22.69L102.905 23.176C102.725 22.036 102.155 21.136 101.195 20.476C100.247 19.804 99.0412 19.456 97.5772 19.432C96.1972 19.396 95.0752 19.66 94.2112 20.224C93.3472 20.776 92.9152 21.514 92.9152 22.438C92.9152 22.954 93.0712 23.398 93.3832 23.77C93.6952 24.13 94.2592 24.472 95.0752 24.796C95.9032 25.12 97.0792 25.474 98.6032 25.858C100.391 26.314 101.795 26.794 102.815 27.298C103.835 27.802 104.561 28.396 104.993 29.08C105.425 29.764 105.641 30.61 105.641 31.618C105.641 33.454 104.957 34.9 103.589 35.956C102.233 37 100.361 37.522 97.9732 37.522Z" fill="#AFB4DB"/>
<path d="M116.84 37V11.08H124.706C124.982 11.08 125.45 11.086 126.11 11.098C126.782 11.11 127.424 11.158 128.036 11.242C130.004 11.518 131.648 12.25 132.968 13.438C134.288 14.626 135.278 16.138 135.938 17.974C136.598 19.81 136.928 21.832 136.928 24.04C136.928 26.248 136.598 28.27 135.938 30.106C135.278 31.942 134.288 33.454 132.968 34.642C131.648 35.83 130.004 36.562 128.036 36.838C127.436 36.91 126.794 36.958 126.11 36.982C125.426 36.994 124.958 37 124.706 37H116.84ZM119.576 34.462H124.706C125.198 34.462 125.726 34.45 126.29 34.426C126.866 34.39 127.358 34.33 127.766 34.246C129.278 33.982 130.496 33.37 131.42 32.41C132.356 31.45 133.04 30.25 133.472 28.81C133.904 27.358 134.12 25.768 134.12 24.04C134.12 22.3 133.904 20.704 133.472 19.252C133.04 17.8 132.356 16.6 131.42 15.652C130.484 14.704 129.266 14.098 127.766 13.834C127.358 13.75 126.86 13.696 126.272 13.672C125.696 13.636 125.174 13.618 124.706 13.618H119.576V34.462Z" fill="#AFB4DB"/>
<path d="M146.59 37.54C145.126 37.54 143.896 37.276 142.9 36.748C141.916 36.22 141.178 35.518 140.686 34.642C140.194 33.766 139.948 32.812 139.948 31.78C139.948 30.724 140.158 29.824 140.578 29.08C141.01 28.324 141.592 27.706 142.324 27.226C143.068 26.746 143.926 26.38 144.898 26.128C145.882 25.888 146.968 25.678 148.156 25.498C149.356 25.306 150.526 25.144 151.666 25.012C152.818 24.868 153.826 24.73 154.69 24.598L153.754 25.174C153.79 23.254 153.418 21.832 152.638 20.908C151.858 19.984 150.502 19.522 148.57 19.522C147.238 19.522 146.11 19.822 145.186 20.422C144.274 21.022 143.632 21.97 143.26 23.266L140.686 22.51C141.13 20.77 142.024 19.42 143.368 18.46C144.712 17.5 146.458 17.02 148.606 17.02C150.382 17.02 151.888 17.356 153.124 18.028C154.372 18.688 155.254 19.648 155.77 20.908C156.01 21.472 156.166 22.102 156.238 22.798C156.31 23.494 156.346 24.202 156.346 24.922V37H153.988V32.122L154.672 32.41C154.012 34.078 152.986 35.35 151.594 36.226C150.202 37.102 148.534 37.54 146.59 37.54ZM146.896 35.254C148.132 35.254 149.212 35.032 150.136 34.588C151.06 34.144 151.804 33.538 152.368 32.77C152.932 31.99 153.298 31.114 153.466 30.142C153.61 29.518 153.688 28.834 153.7 28.09C153.712 27.334 153.718 26.77 153.718 26.398L154.726 26.92C153.826 27.04 152.848 27.16 151.792 27.28C150.748 27.4 149.716 27.538 148.696 27.694C147.688 27.85 146.776 28.036 145.96 28.252C145.408 28.408 144.874 28.63 144.358 28.918C143.842 29.194 143.416 29.566 143.08 30.034C142.756 30.502 142.594 31.084 142.594 31.78C142.594 32.344 142.732 32.89 143.008 33.418C143.296 33.946 143.752 34.384 144.376 34.732C145.012 35.08 145.852 35.254 146.896 35.254Z" fill="#AFB4DB"/>
<path d="M165.585 37L158.529 17.56H161.211L166.953 33.544L172.659 17.56H175.377L168.321 37H165.585Z" fill="#AFB4DB"/>
<path d="M178.97 13.87V10.9H181.616V13.87H178.97ZM178.97 37V17.56H181.616V37H178.97Z" fill="#AFB4DB"/>
<path d="M194.554 37.54C192.742 37.54 191.194 37.09 189.91 36.19C188.626 35.278 187.642 34.048 186.958 32.5C186.274 30.952 185.932 29.206 185.932 27.262C185.932 25.33 186.268 23.59 186.94 22.042C187.624 20.494 188.602 19.27 189.874 18.37C191.146 17.47 192.67 17.02 194.446 17.02C196.27 17.02 197.806 17.464 199.054 18.352C200.302 19.24 201.244 20.458 201.88 22.006C202.528 23.542 202.852 25.294 202.852 27.262C202.852 29.194 202.534 30.94 201.898 32.5C201.262 34.048 200.326 35.278 199.09 36.19C197.854 37.09 196.342 37.54 194.554 37.54ZM194.824 35.074C196.204 35.074 197.344 34.738 198.244 34.066C199.144 33.394 199.816 32.47 200.26 31.294C200.704 30.106 200.926 28.762 200.926 27.262C200.926 25.738 200.704 24.394 200.26 23.23C199.816 22.054 199.144 21.136 198.244 20.476C197.356 19.816 196.234 19.486 194.878 19.486C193.486 19.486 192.334 19.828 191.422 20.512C190.51 21.196 189.832 22.126 189.388 23.302C188.956 24.478 188.74 25.798 188.74 27.262C188.74 28.738 188.962 30.07 189.406 31.258C189.862 32.434 190.54 33.364 191.44 34.048C192.34 34.732 193.468 35.074 194.824 35.074ZM200.926 37V22.366H200.638V11.08H203.302V37H200.926Z" fill="#AFB4DB"/>
<path d="M208.856 37V33.922H211.934V37H208.856Z" fill="#AFB4DB"/>
</svg>
